<?xml version="1.0" encoding="utf-8" standalone="no"?>
<!DOCTYPE svg PUBLIC "-//W3C//DTD SVG 1.1//EN"
  "http://www.w3.org/Graphics/SVG/1.1/DTD/svg11.dtd">
<!-- Created with matplotlib (https://matplotlib.org/) -->
<svg height="360pt" version="1.1" viewBox="0 0 360 360" width="360pt" xmlns="http://www.w3.org/2000/svg" xmlns:xlink="http://www.w3.org/1999/xlink">
 <metadata>
  <rdf:RDF xmlns:cc="http://creativecommons.org/ns#" xmlns:dc="http://purl.org/dc/elements/1.1/" xmlns:rdf="http://www.w3.org/1999/02/22-rdf-syntax-ns#">
   <cc:Work>
    <dc:type rdf:resource="http://purl.org/dc/dcmitype/StillImage"/>
    <dc:date>2020-10-30T13:36:48.852274</dc:date>
    <dc:format>image/svg+xml</dc:format>
    <dc:creator>
     <cc:Agent>
      <dc:title>Matplotlib v3.3.2, https://matplotlib.org/</dc:title>
     </cc:Agent>
    </dc:creator>
   </cc:Work>
  </rdf:RDF>
 </metadata>
 <defs>
  <style type="text/css">*{stroke-linecap:butt;stroke-linejoin:round;}</style>
 </defs>
 <g id="figure_1">
  <g id="patch_1">
   <path d="M 0 360 
L 360 360 
L 360 0 
L 0 0 
z
" style="fill:none;"/>
  </g>
  <g id="axes_1">
   <g id="patch_2">
    <path d="M 45 315 
L 324 315 
L 324 43.2 
L 45 43.2 
z
" style="fill:#ffffff;"/>
   </g>
   <g id="matplotlib.axis_1">
    <g id="xtick_1">
     <g id="line2d_1">
      <defs>
       <path d="M 0 0 
L 0 3.5 
" id="m7d22e6fc3a" style="stroke:#000000;stroke-width:0.8;"/>
      </defs>
      <g>
       <use style="stroke:#000000;stroke-width:0.8;" x="45" xlink:href="#m7d22e6fc3a" y="315"/>
      </g>
     </g>
     <g id="text_1">
      <!-- 0 -->
      <g transform="translate(39.91 334.1575)scale(0.16 -0.16)">
       <defs>
        <path d="M 31.78125 66.40625 
Q 24.171875 66.40625 20.328125 58.90625 
Q 16.5 51.421875 16.5 36.375 
Q 16.5 21.390625 20.328125 13.890625 
Q 24.171875 6.390625 31.78125 6.390625 
Q 39.453125 6.390625 43.28125 13.890625 
Q 47.125 21.390625 47.125 36.375 
Q 47.125 51.421875 43.28125 58.90625 
Q 39.453125 66.40625 31.78125 66.40625 
z
M 31.78125 74.21875 
Q 44.046875 74.21875 50.515625 64.515625 
Q 56.984375 54.828125 56.984375 36.375 
Q 56.984375 17.96875 50.515625 8.265625 
Q 44.046875 -1.421875 31.78125 -1.421875 
Q 19.53125 -1.421875 13.0625 8.265625 
Q 6.59375 17.96875 6.59375 36.375 
Q 6.59375 54.828125 13.0625 64.515625 
Q 19.53125 74.21875 31.78125 74.21875 
z
" id="DejaVuSans-48"/>
       </defs>
       <use xlink:href="#DejaVuSans-48"/>
      </g>
     </g>
    </g>
    <g id="xtick_2">
     <g id="line2d_2">
      <g>
       <use style="stroke:#000000;stroke-width:0.8;" x="108.122172" xlink:href="#m7d22e6fc3a" y="315"/>
      </g>
     </g>
     <g id="text_2">
      <!-- 100 -->
      <g transform="translate(92.852172 334.1575)scale(0.16 -0.16)">
       <defs>
        <path d="M 12.40625 8.296875 
L 28.515625 8.296875 
L 28.515625 63.921875 
L 10.984375 60.40625 
L 10.984375 69.390625 
L 28.421875 72.90625 
L 38.28125 72.90625 
L 38.28125 8.296875 
L 54.390625 8.296875 
L 54.390625 0 
L 12.40625 0 
z
" id="DejaVuSans-49"/>
       </defs>
       <use xlink:href="#DejaVuSans-49"/>
       <use x="63.623047" xlink:href="#DejaVuSans-48"/>
       <use x="127.246094" xlink:href="#DejaVuSans-48"/>
      </g>
     </g>
    </g>
    <g id="xtick_3">
     <g id="line2d_3">
      <g>
       <use style="stroke:#000000;stroke-width:0.8;" x="171.244344" xlink:href="#m7d22e6fc3a" y="315"/>
      </g>
     </g>
     <g id="text_3">
      <!-- 200 -->
      <g transform="translate(155.974344 334.1575)scale(0.16 -0.16)">
       <defs>
        <path d="M 19.1875 8.296875 
L 53.609375 8.296875 
L 53.609375 0 
L 7.328125 0 
L 7.328125 8.296875 
Q 12.9375 14.109375 22.625 23.890625 
Q 32.328125 33.6875 34.8125 36.53125 
Q 39.546875 41.84375 41.421875 45.53125 
Q 43.3125 49.21875 43.3125 52.78125 
Q 43.3125 58.59375 39.234375 62.25 
Q 35.15625 65.921875 28.609375 65.921875 
Q 23.96875 65.921875 18.8125 64.3125 
Q 13.671875 62.703125 7.8125 59.421875 
L 7.8125 69.390625 
Q 13.765625 71.78125 18.9375 73 
Q 24.125 74.21875 28.421875 74.21875 
Q 39.75 74.21875 46.484375 68.546875 
Q 53.21875 62.890625 53.21875 53.421875 
Q 53.21875 48.921875 51.53125 44.890625 
Q 49.859375 40.875 45.40625 35.40625 
Q 44.1875 33.984375 37.640625 27.21875 
Q 31.109375 20.453125 19.1875 8.296875 
z
" id="DejaVuSans-50"/>
       </defs>
       <use xlink:href="#DejaVuSans-50"/>
       <use x="63.623047" xlink:href="#DejaVuSans-48"/>
       <use x="127.246094" xlink:href="#DejaVuSans-48"/>
      </g>
     </g>
    </g>
    <g id="xtick_4">
     <g id="line2d_4">
      <g>
       <use style="stroke:#000000;stroke-width:0.8;" x="234.366516" xlink:href="#m7d22e6fc3a" y="315"/>
      </g>
     </g>
     <g id="text_4">
      <!-- 300 -->
      <g transform="translate(219.096516 334.1575)scale(0.16 -0.16)">
       <defs>
        <path d="M 40.578125 39.3125 
Q 47.65625 37.796875 51.625 33 
Q 55.609375 28.21875 55.609375 21.1875 
Q 55.609375 10.40625 48.1875 4.484375 
Q 40.765625 -1.421875 27.09375 -1.421875 
Q 22.515625 -1.421875 17.65625 -0.515625 
Q 12.796875 0.390625 7.625 2.203125 
L 7.625 11.71875 
Q 11.71875 9.328125 16.59375 8.109375 
Q 21.484375 6.890625 26.8125 6.890625 
Q 36.078125 6.890625 40.9375 10.546875 
Q 45.796875 14.203125 45.796875 21.1875 
Q 45.796875 27.640625 41.28125 31.265625 
Q 36.765625 34.90625 28.71875 34.90625 
L 20.21875 34.90625 
L 20.21875 43.015625 
L 29.109375 43.015625 
Q 36.375 43.015625 40.234375 45.921875 
Q 44.09375 48.828125 44.09375 54.296875 
Q 44.09375 59.90625 40.109375 62.90625 
Q 36.140625 65.921875 28.71875 65.921875 
Q 24.65625 65.921875 20.015625 65.03125 
Q 15.375 64.15625 9.8125 62.3125 
L 9.8125 71.09375 
Q 15.4375 72.65625 20.34375 73.4375 
Q 25.25 74.21875 29.59375 74.21875 
Q 40.828125 74.21875 47.359375 69.109375 
Q 53.90625 64.015625 53.90625 55.328125 
Q 53.90625 49.265625 50.4375 45.09375 
Q 46.96875 40.921875 40.578125 39.3125 
z
" id="DejaVuSans-51"/>
       </defs>
       <use xlink:href="#DejaVuSans-51"/>
       <use x="63.623047" xlink:href="#DejaVuSans-48"/>
       <use x="127.246094" xlink:href="#DejaVuSans-48"/>
      </g>
     </g>
    </g>
    <g id="xtick_5">
     <g id="line2d_5">
      <g>
       <use style="stroke:#000000;stroke-width:0.8;" x="297.488688" xlink:href="#m7d22e6fc3a" y="315"/>
      </g>
     </g>
     <g id="text_5">
      <!-- 400 -->
      <g transform="translate(282.218688 334.1575)scale(0.16 -0.16)">
       <defs>
        <path d="M 37.796875 64.3125 
L 12.890625 25.390625 
L 37.796875 25.390625 
z
M 35.203125 72.90625 
L 47.609375 72.90625 
L 47.609375 25.390625 
L 58.015625 25.390625 
L 58.015625 17.1875 
L 47.609375 17.1875 
L 47.609375 0 
L 37.796875 0 
L 37.796875 17.1875 
L 4.890625 17.1875 
L 4.890625 26.703125 
z
" id="DejaVuSans-52"/>
       </defs>
       <use xlink:href="#DejaVuSans-52"/>
       <use x="63.623047" xlink:href="#DejaVuSans-48"/>
       <use x="127.246094" xlink:href="#DejaVuSans-48"/>
      </g>
     </g>
    </g>
    <g id="text_6">
     <!-- Pixel Magnitude -->
     <g transform="translate(121.0775 353.6425)scale(0.16 -0.16)">
      <defs>
       <path d="M 19.671875 64.796875 
L 19.671875 37.40625 
L 32.078125 37.40625 
Q 38.96875 37.40625 42.71875 40.96875 
Q 46.484375 44.53125 46.484375 51.125 
Q 46.484375 57.671875 42.71875 61.234375 
Q 38.96875 64.796875 32.078125 64.796875 
z
M 9.8125 72.90625 
L 32.078125 72.90625 
Q 44.34375 72.90625 50.609375 67.359375 
Q 56.890625 61.8125 56.890625 51.125 
Q 56.890625 40.328125 50.609375 34.8125 
Q 44.34375 29.296875 32.078125 29.296875 
L 19.671875 29.296875 
L 19.671875 0 
L 9.8125 0 
z
" id="DejaVuSans-80"/>
       <path d="M 9.421875 54.6875 
L 18.40625 54.6875 
L 18.40625 0 
L 9.421875 0 
z
M 9.421875 75.984375 
L 18.40625 75.984375 
L 18.40625 64.59375 
L 9.421875 64.59375 
z
" id="DejaVuSans-105"/>
       <path d="M 54.890625 54.6875 
L 35.109375 28.078125 
L 55.90625 0 
L 45.3125 0 
L 29.390625 21.484375 
L 13.484375 0 
L 2.875 0 
L 24.125 28.609375 
L 4.6875 54.6875 
L 15.28125 54.6875 
L 29.78125 35.203125 
L 44.28125 54.6875 
z
" id="DejaVuSans-120"/>
       <path d="M 56.203125 29.59375 
L 56.203125 25.203125 
L 14.890625 25.203125 
Q 15.484375 15.921875 20.484375 11.0625 
Q 25.484375 6.203125 34.421875 6.203125 
Q 39.59375 6.203125 44.453125 7.46875 
Q 49.3125 8.734375 54.109375 11.28125 
L 54.109375 2.78125 
Q 49.265625 0.734375 44.1875 -0.34375 
Q 39.109375 -1.421875 33.890625 -1.421875 
Q 20.796875 -1.421875 13.15625 6.1875 
Q 5.515625 13.8125 5.515625 26.8125 
Q 5.515625 40.234375 12.765625 48.109375 
Q 20.015625 56 32.328125 56 
Q 43.359375 56 49.78125 48.890625 
Q 56.203125 41.796875 56.203125 29.59375 
z
M 47.21875 32.234375 
Q 47.125 39.59375 43.09375 43.984375 
Q 39.0625 48.390625 32.421875 48.390625 
Q 24.90625 48.390625 20.390625 44.140625 
Q 15.875 39.890625 15.1875 32.171875 
z
" id="DejaVuSans-101"/>
       <path d="M 9.421875 75.984375 
L 18.40625 75.984375 
L 18.40625 0 
L 9.421875 0 
z
" id="DejaVuSans-108"/>
       <path id="DejaVuSans-32"/>
       <path d="M 9.8125 72.90625 
L 24.515625 72.90625 
L 43.109375 23.296875 
L 61.8125 72.90625 
L 76.515625 72.90625 
L 76.515625 0 
L 66.890625 0 
L 66.890625 64.015625 
L 48.09375 14.015625 
L 38.1875 14.015625 
L 19.390625 64.015625 
L 19.390625 0 
L 9.8125 0 
z
" id="DejaVuSans-77"/>
       <path d="M 34.28125 27.484375 
Q 23.390625 27.484375 19.1875 25 
Q 14.984375 22.515625 14.984375 16.5 
Q 14.984375 11.71875 18.140625 8.90625 
Q 21.296875 6.109375 26.703125 6.109375 
Q 34.1875 6.109375 38.703125 11.40625 
Q 43.21875 16.703125 43.21875 25.484375 
L 43.21875 27.484375 
z
M 52.203125 31.203125 
L 52.203125 0 
L 43.21875 0 
L 43.21875 8.296875 
Q 40.140625 3.328125 35.546875 0.953125 
Q 30.953125 -1.421875 24.3125 -1.421875 
Q 15.921875 -1.421875 10.953125 3.296875 
Q 6 8.015625 6 15.921875 
Q 6 25.140625 12.171875 29.828125 
Q 18.359375 34.515625 30.609375 34.515625 
L 43.21875 34.515625 
L 43.21875 35.40625 
Q 43.21875 41.609375 39.140625 45 
Q 35.0625 48.390625 27.6875 48.390625 
Q 23 48.390625 18.546875 47.265625 
Q 14.109375 46.140625 10.015625 43.890625 
L 10.015625 52.203125 
Q 14.9375 54.109375 19.578125 55.046875 
Q 24.21875 56 28.609375 56 
Q 40.484375 56 46.34375 49.84375 
Q 52.203125 43.703125 52.203125 31.203125 
z
" id="DejaVuSans-97"/>
       <path d="M 45.40625 27.984375 
Q 45.40625 37.75 41.375 43.109375 
Q 37.359375 48.484375 30.078125 48.484375 
Q 22.859375 48.484375 18.828125 43.109375 
Q 14.796875 37.75 14.796875 27.984375 
Q 14.796875 18.265625 18.828125 12.890625 
Q 22.859375 7.515625 30.078125 7.515625 
Q 37.359375 7.515625 41.375 12.890625 
Q 45.40625 18.265625 45.40625 27.984375 
z
M 54.390625 6.78125 
Q 54.390625 -7.171875 48.1875 -13.984375 
Q 42 -20.796875 29.203125 -20.796875 
Q 24.46875 -20.796875 20.265625 -20.09375 
Q 16.0625 -19.390625 12.109375 -17.921875 
L 12.109375 -9.1875 
Q 16.0625 -11.328125 19.921875 -12.34375 
Q 23.78125 -13.375 27.78125 -13.375 
Q 36.625 -13.375 41.015625 -8.765625 
Q 45.40625 -4.15625 45.40625 5.171875 
L 45.40625 9.625 
Q 42.625 4.78125 38.28125 2.390625 
Q 33.9375 0 27.875 0 
Q 17.828125 0 11.671875 7.65625 
Q 5.515625 15.328125 5.515625 27.984375 
Q 5.515625 40.671875 11.671875 48.328125 
Q 17.828125 56 27.875 56 
Q 33.9375 56 38.28125 53.609375 
Q 42.625 51.21875 45.40625 46.390625 
L 45.40625 54.6875 
L 54.390625 54.6875 
z
" id="DejaVuSans-103"/>
       <path d="M 54.890625 33.015625 
L 54.890625 0 
L 45.90625 0 
L 45.90625 32.71875 
Q 45.90625 40.484375 42.875 44.328125 
Q 39.84375 48.1875 33.796875 48.1875 
Q 26.515625 48.1875 22.3125 43.546875 
Q 18.109375 38.921875 18.109375 30.90625 
L 18.109375 0 
L 9.078125 0 
L 9.078125 54.6875 
L 18.109375 54.6875 
L 18.109375 46.1875 
Q 21.34375 51.125 25.703125 53.5625 
Q 30.078125 56 35.796875 56 
Q 45.21875 56 50.046875 50.171875 
Q 54.890625 44.34375 54.890625 33.015625 
z
" id="DejaVuSans-110"/>
       <path d="M 18.3125 70.21875 
L 18.3125 54.6875 
L 36.8125 54.6875 
L 36.8125 47.703125 
L 18.3125 47.703125 
L 18.3125 18.015625 
Q 18.3125 11.328125 20.140625 9.421875 
Q 21.96875 7.515625 27.59375 7.515625 
L 36.8125 7.515625 
L 36.8125 0 
L 27.59375 0 
Q 17.1875 0 13.234375 3.875 
Q 9.28125 7.765625 9.28125 18.015625 
L 9.28125 47.703125 
L 2.6875 47.703125 
L 2.6875 54.6875 
L 9.28125 54.6875 
L 9.28125 70.21875 
z
" id="DejaVuSans-116"/>
       <path d="M 8.5 21.578125 
L 8.5 54.6875 
L 17.484375 54.6875 
L 17.484375 21.921875 
Q 17.484375 14.15625 20.5 10.265625 
Q 23.53125 6.390625 29.59375 6.390625 
Q 36.859375 6.390625 41.078125 11.03125 
Q 45.3125 15.671875 45.3125 23.6875 
L 45.3125 54.6875 
L 54.296875 54.6875 
L 54.296875 0 
L 45.3125 0 
L 45.3125 8.40625 
Q 42.046875 3.421875 37.71875 1 
Q 33.40625 -1.421875 27.6875 -1.421875 
Q 18.265625 -1.421875 13.375 4.4375 
Q 8.5 10.296875 8.5 21.578125 
z
M 31.109375 56 
z
" id="DejaVuSans-117"/>
       <path d="M 45.40625 46.390625 
L 45.40625 75.984375 
L 54.390625 75.984375 
L 54.390625 0 
L 45.40625 0 
L 45.40625 8.203125 
Q 42.578125 3.328125 38.25 0.953125 
Q 33.9375 -1.421875 27.875 -1.421875 
Q 17.96875 -1.421875 11.734375 6.484375 
Q 5.515625 14.40625 5.515625 27.296875 
Q 5.515625 40.1875 11.734375 48.09375 
Q 17.96875 56 27.875 56 
Q 33.9375 56 38.25 53.625 
Q 42.578125 51.265625 45.40625 46.390625 
z
M 14.796875 27.296875 
Q 14.796875 17.390625 18.875 11.75 
Q 22.953125 6.109375 30.078125 6.109375 
Q 37.203125 6.109375 41.296875 11.75 
Q 45.40625 17.390625 45.40625 27.296875 
Q 45.40625 37.203125 41.296875 42.84375 
Q 37.203125 48.484375 30.078125 48.484375 
Q 22.953125 48.484375 18.875 42.84375 
Q 14.796875 37.203125 14.796875 27.296875 
z
" id="DejaVuSans-100"/>
      </defs>
      <use xlink:href="#DejaVuSans-80"/>
      <use x="58.052734" xlink:href="#DejaVuSans-105"/>
      <use x="85.835938" xlink:href="#DejaVuSans-120"/>
      <use x="141.890625" xlink:href="#DejaVuSans-101"/>
      <use x="203.414062" xlink:href="#DejaVuSans-108"/>
      <use x="231.197266" xlink:href="#DejaVuSans-32"/>
      <use x="262.984375" xlink:href="#DejaVuSans-77"/>
      <use x="349.263672" xlink:href="#DejaVuSans-97"/>
      <use x="410.542969" xlink:href="#DejaVuSans-103"/>
      <use x="474.019531" xlink:href="#DejaVuSans-110"/>
      <use x="537.398438" xlink:href="#DejaVuSans-105"/>
      <use x="565.181641" xlink:href="#DejaVuSans-116"/>
      <use x="604.390625" xlink:href="#DejaVuSans-117"/>
      <use x="667.769531" xlink:href="#DejaVuSans-100"/>
      <use x="731.246094" xlink:href="#DejaVuSans-101"/>
     </g>
    </g>
   </g>
   <g id="matplotlib.axis_2">
    <g id="ytick_1">
     <g id="line2d_6">
      <defs>
       <path d="M 0 0 
L -3.5 0 
" id="m3812650907" style="stroke:#000000;stroke-width:0.8;"/>
      </defs>
      <g>
       <use style="stroke:#000000;stroke-width:0.8;" x="45" xlink:href="#m3812650907" y="302.645455"/>
      </g>
     </g>
     <g id="text_7">
      <!-- 0.0 -->
      <g transform="translate(12.555 308.724205)scale(0.16 -0.16)">
       <defs>
        <path d="M 10.6875 12.40625 
L 21 12.40625 
L 21 0 
L 10.6875 0 
z
" id="DejaVuSans-46"/>
       </defs>
       <use xlink:href="#DejaVuSans-48"/>
       <use x="63.623047" xlink:href="#DejaVuSans-46"/>
       <use x="95.410156" xlink:href="#DejaVuSans-48"/>
      </g>
     </g>
    </g>
    <g id="ytick_2">
     <g id="line2d_7">
      <g>
       <use style="stroke:#000000;stroke-width:0.8;" x="45" xlink:href="#m3812650907" y="256.373749"/>
      </g>
     </g>
     <g id="text_8">
      <!-- 0.1 -->
      <g transform="translate(12.555 262.452499)scale(0.16 -0.16)">
       <use xlink:href="#DejaVuSans-48"/>
       <use x="63.623047" xlink:href="#DejaVuSans-46"/>
       <use x="95.410156" xlink:href="#DejaVuSans-49"/>
      </g>
     </g>
    </g>
    <g id="ytick_3">
     <g id="line2d_8">
      <g>
       <use style="stroke:#000000;stroke-width:0.8;" x="45" xlink:href="#m3812650907" y="210.102043"/>
      </g>
     </g>
     <g id="text_9">
      <!-- 0.2 -->
      <g transform="translate(12.555 216.180793)scale(0.16 -0.16)">
       <use xlink:href="#DejaVuSans-48"/>
       <use x="63.623047" xlink:href="#DejaVuSans-46"/>
       <use x="95.410156" xlink:href="#DejaVuSans-50"/>
      </g>
     </g>
    </g>
    <g id="ytick_4">
     <g id="line2d_9">
      <g>
       <use style="stroke:#000000;stroke-width:0.8;" x="45" xlink:href="#m3812650907" y="163.830337"/>
      </g>
     </g>
     <g id="text_10">
      <!-- 0.3 -->
      <g transform="translate(12.555 169.909087)scale(0.16 -0.16)">
       <use xlink:href="#DejaVuSans-48"/>
       <use x="63.623047" xlink:href="#DejaVuSans-46"/>
       <use x="95.410156" xlink:href="#DejaVuSans-51"/>
      </g>
     </g>
    </g>
    <g id="ytick_5">
     <g id="line2d_10">
      <g>
       <use style="stroke:#000000;stroke-width:0.8;" x="45" xlink:href="#m3812650907" y="117.558631"/>
      </g>
     </g>
     <g id="text_11">
      <!-- 0.4 -->
      <g transform="translate(12.555 123.637381)scale(0.16 -0.16)">
       <use xlink:href="#DejaVuSans-48"/>
       <use x="63.623047" xlink:href="#DejaVuSans-46"/>
       <use x="95.410156" xlink:href="#DejaVuSans-52"/>
      </g>
     </g>
    </g>
    <g id="ytick_6">
     <g id="line2d_11">
      <g>
       <use style="stroke:#000000;stroke-width:0.8;" x="45" xlink:href="#m3812650907" y="71.286925"/>
      </g>
     </g>
     <g id="text_12">
      <!-- 0.5 -->
      <g transform="translate(12.555 77.365675)scale(0.16 -0.16)">
       <defs>
        <path d="M 10.796875 72.90625 
L 49.515625 72.90625 
L 49.515625 64.59375 
L 19.828125 64.59375 
L 19.828125 46.734375 
Q 21.96875 47.46875 24.109375 47.828125 
Q 26.265625 48.1875 28.421875 48.1875 
Q 40.625 48.1875 47.75 41.5 
Q 54.890625 34.8125 54.890625 23.390625 
Q 54.890625 11.625 47.5625 5.09375 
Q 40.234375 -1.421875 26.90625 -1.421875 
Q 22.3125 -1.421875 17.546875 -0.640625 
Q 12.796875 0.140625 7.71875 1.703125 
L 7.71875 11.625 
Q 12.109375 9.234375 16.796875 8.0625 
Q 21.484375 6.890625 26.703125 6.890625 
Q 35.15625 6.890625 40.078125 11.328125 
Q 45.015625 15.765625 45.015625 23.390625 
Q 45.015625 31 40.078125 35.4375 
Q 35.15625 39.890625 26.703125 39.890625 
Q 22.75 39.890625 18.8125 39.015625 
Q 14.890625 38.140625 10.796875 36.28125 
z
" id="DejaVuSans-53"/>
       </defs>
       <use xlink:href="#DejaVuSans-48"/>
       <use x="63.623047" xlink:href="#DejaVuSans-46"/>
       <use x="95.410156" xlink:href="#DejaVuSans-53"/>
      </g>
     </g>
    </g>
    <g id="text_13">
     <!-- Percentage of Pixels  -->
     <g transform="translate(-12.689 262.09875)rotate(-90)scale(0.16 -0.16)">
      <defs>
       <path d="M 41.109375 46.296875 
Q 39.59375 47.171875 37.8125 47.578125 
Q 36.03125 48 33.890625 48 
Q 26.265625 48 22.1875 43.046875 
Q 18.109375 38.09375 18.109375 28.8125 
L 18.109375 0 
L 9.078125 0 
L 9.078125 54.6875 
L 18.109375 54.6875 
L 18.109375 46.1875 
Q 20.953125 51.171875 25.484375 53.578125 
Q 30.03125 56 36.53125 56 
Q 37.453125 56 38.578125 55.875 
Q 39.703125 55.765625 41.0625 55.515625 
z
" id="DejaVuSans-114"/>
       <path d="M 48.78125 52.59375 
L 48.78125 44.1875 
Q 44.96875 46.296875 41.140625 47.34375 
Q 37.3125 48.390625 33.40625 48.390625 
Q 24.65625 48.390625 19.8125 42.84375 
Q 14.984375 37.3125 14.984375 27.296875 
Q 14.984375 17.28125 19.8125 11.734375 
Q 24.65625 6.203125 33.40625 6.203125 
Q 37.3125 6.203125 41.140625 7.25 
Q 44.96875 8.296875 48.78125 10.40625 
L 48.78125 2.09375 
Q 45.015625 0.34375 40.984375 -0.53125 
Q 36.96875 -1.421875 32.421875 -1.421875 
Q 20.0625 -1.421875 12.78125 6.34375 
Q 5.515625 14.109375 5.515625 27.296875 
Q 5.515625 40.671875 12.859375 48.328125 
Q 20.21875 56 33.015625 56 
Q 37.15625 56 41.109375 55.140625 
Q 45.0625 54.296875 48.78125 52.59375 
z
" id="DejaVuSans-99"/>
       <path d="M 30.609375 48.390625 
Q 23.390625 48.390625 19.1875 42.75 
Q 14.984375 37.109375 14.984375 27.296875 
Q 14.984375 17.484375 19.15625 11.84375 
Q 23.34375 6.203125 30.609375 6.203125 
Q 37.796875 6.203125 41.984375 11.859375 
Q 46.1875 17.53125 46.1875 27.296875 
Q 46.1875 37.015625 41.984375 42.703125 
Q 37.796875 48.390625 30.609375 48.390625 
z
M 30.609375 56 
Q 42.328125 56 49.015625 48.375 
Q 55.71875 40.765625 55.71875 27.296875 
Q 55.71875 13.875 49.015625 6.21875 
Q 42.328125 -1.421875 30.609375 -1.421875 
Q 18.84375 -1.421875 12.171875 6.21875 
Q 5.515625 13.875 5.515625 27.296875 
Q 5.515625 40.765625 12.171875 48.375 
Q 18.84375 56 30.609375 56 
z
" id="DejaVuSans-111"/>
       <path d="M 37.109375 75.984375 
L 37.109375 68.5 
L 28.515625 68.5 
Q 23.6875 68.5 21.796875 66.546875 
Q 19.921875 64.59375 19.921875 59.515625 
L 19.921875 54.6875 
L 34.71875 54.6875 
L 34.71875 47.703125 
L 19.921875 47.703125 
L 19.921875 0 
L 10.890625 0 
L 10.890625 47.703125 
L 2.296875 47.703125 
L 2.296875 54.6875 
L 10.890625 54.6875 
L 10.890625 58.5 
Q 10.890625 67.625 15.140625 71.796875 
Q 19.390625 75.984375 28.609375 75.984375 
z
" id="DejaVuSans-102"/>
       <path d="M 44.28125 53.078125 
L 44.28125 44.578125 
Q 40.484375 46.53125 36.375 47.5 
Q 32.28125 48.484375 27.875 48.484375 
Q 21.1875 48.484375 17.84375 46.4375 
Q 14.5 44.390625 14.5 40.28125 
Q 14.5 37.15625 16.890625 35.375 
Q 19.28125 33.59375 26.515625 31.984375 
L 29.59375 31.296875 
Q 39.15625 29.25 43.1875 25.515625 
Q 47.21875 21.78125 47.21875 15.09375 
Q 47.21875 7.46875 41.1875 3.015625 
Q 35.15625 -1.421875 24.609375 -1.421875 
Q 20.21875 -1.421875 15.453125 -0.5625 
Q 10.6875 0.296875 5.421875 2 
L 5.421875 11.28125 
Q 10.40625 8.6875 15.234375 7.390625 
Q 20.0625 6.109375 24.8125 6.109375 
Q 31.15625 6.109375 34.5625 8.28125 
Q 37.984375 10.453125 37.984375 14.40625 
Q 37.984375 18.0625 35.515625 20.015625 
Q 33.0625 21.96875 24.703125 23.78125 
L 21.578125 24.515625 
Q 13.234375 26.265625 9.515625 29.90625 
Q 5.8125 33.546875 5.8125 39.890625 
Q 5.8125 47.609375 11.28125 51.796875 
Q 16.75 56 26.8125 56 
Q 31.78125 56 36.171875 55.265625 
Q 40.578125 54.546875 44.28125 53.078125 
z
" id="DejaVuSans-115"/>
      </defs>
      <use xlink:href="#DejaVuSans-80"/>
      <use x="56.677734" xlink:href="#DejaVuSans-101"/>
      <use x="118.201172" xlink:href="#DejaVuSans-114"/>
      <use x="157.064453" xlink:href="#DejaVuSans-99"/>
      <use x="212.044922" xlink:href="#DejaVuSans-101"/>
      <use x="273.568359" xlink:href="#DejaVuSans-110"/>
      <use x="336.947266" xlink:href="#DejaVuSans-116"/>
      <use x="376.15625" xlink:href="#DejaVuSans-97"/>
      <use x="437.435547" xlink:href="#DejaVuSans-103"/>
      <use x="500.912109" xlink:href="#DejaVuSans-101"/>
      <use x="562.435547" xlink:href="#DejaVuSans-32"/>
      <use x="594.222656" xlink:href="#DejaVuSans-111"/>
      <use x="655.404297" xlink:href="#DejaVuSans-102"/>
      <use x="690.609375" xlink:href="#DejaVuSans-32"/>
      <use x="722.396484" xlink:href="#DejaVuSans-80"/>
      <use x="780.449219" xlink:href="#DejaVuSans-105"/>
      <use x="808.232422" xlink:href="#DejaVuSans-120"/>
      <use x="864.287109" xlink:href="#DejaVuSans-101"/>
      <use x="925.810547" xlink:href="#DejaVuSans-108"/>
      <use x="953.59375" xlink:href="#DejaVuSans-115"/>
      <use x="1005.693359" xlink:href="#DejaVuSans-32"/>
     </g>
     <!-- (Sample of 10000) -->
     <g transform="translate(5.2275 253.58625)rotate(-90)scale(0.16 -0.16)">
      <defs>
       <path d="M 31 75.875 
Q 24.46875 64.65625 21.28125 53.65625 
Q 18.109375 42.671875 18.109375 31.390625 
Q 18.109375 20.125 21.3125 9.0625 
Q 24.515625 -2 31 -13.1875 
L 23.1875 -13.1875 
Q 15.875 -1.703125 12.234375 9.375 
Q 8.59375 20.453125 8.59375 31.390625 
Q 8.59375 42.28125 12.203125 53.3125 
Q 15.828125 64.359375 23.1875 75.875 
z
" id="DejaVuSans-40"/>
       <path d="M 53.515625 70.515625 
L 53.515625 60.890625 
Q 47.90625 63.578125 42.921875 64.890625 
Q 37.9375 66.21875 33.296875 66.21875 
Q 25.25 66.21875 20.875 63.09375 
Q 16.5 59.96875 16.5 54.203125 
Q 16.5 49.359375 19.40625 46.890625 
Q 22.3125 44.4375 30.421875 42.921875 
L 36.375 41.703125 
Q 47.40625 39.59375 52.65625 34.296875 
Q 57.90625 29 57.90625 20.125 
Q 57.90625 9.515625 50.796875 4.046875 
Q 43.703125 -1.421875 29.984375 -1.421875 
Q 24.8125 -1.421875 18.96875 -0.25 
Q 13.140625 0.921875 6.890625 3.21875 
L 6.890625 13.375 
Q 12.890625 10.015625 18.65625 8.296875 
Q 24.421875 6.59375 29.984375 6.59375 
Q 38.421875 6.59375 43.015625 9.90625 
Q 47.609375 13.234375 47.609375 19.390625 
Q 47.609375 24.75 44.3125 27.78125 
Q 41.015625 30.8125 33.5 32.328125 
L 27.484375 33.5 
Q 16.453125 35.6875 11.515625 40.375 
Q 6.59375 45.0625 6.59375 53.421875 
Q 6.59375 63.09375 13.40625 68.65625 
Q 20.21875 74.21875 32.171875 74.21875 
Q 37.3125 74.21875 42.625 73.28125 
Q 47.953125 72.359375 53.515625 70.515625 
z
" id="DejaVuSans-83"/>
       <path d="M 52 44.1875 
Q 55.375 50.25 60.0625 53.125 
Q 64.75 56 71.09375 56 
Q 79.640625 56 84.28125 50.015625 
Q 88.921875 44.046875 88.921875 33.015625 
L 88.921875 0 
L 79.890625 0 
L 79.890625 32.71875 
Q 79.890625 40.578125 77.09375 44.375 
Q 74.3125 48.1875 68.609375 48.1875 
Q 61.625 48.1875 57.5625 43.546875 
Q 53.515625 38.921875 53.515625 30.90625 
L 53.515625 0 
L 44.484375 0 
L 44.484375 32.71875 
Q 44.484375 40.625 41.703125 44.40625 
Q 38.921875 48.1875 33.109375 48.1875 
Q 26.21875 48.1875 22.15625 43.53125 
Q 18.109375 38.875 18.109375 30.90625 
L 18.109375 0 
L 9.078125 0 
L 9.078125 54.6875 
L 18.109375 54.6875 
L 18.109375 46.1875 
Q 21.1875 51.21875 25.484375 53.609375 
Q 29.78125 56 35.6875 56 
Q 41.65625 56 45.828125 52.96875 
Q 50 49.953125 52 44.1875 
z
" id="DejaVuSans-109"/>
       <path d="M 18.109375 8.203125 
L 18.109375 -20.796875 
L 9.078125 -20.796875 
L 9.078125 54.6875 
L 18.109375 54.6875 
L 18.109375 46.390625 
Q 20.953125 51.265625 25.265625 53.625 
Q 29.59375 56 35.59375 56 
Q 45.5625 56 51.78125 48.09375 
Q 58.015625 40.1875 58.015625 27.296875 
Q 58.015625 14.40625 51.78125 6.484375 
Q 45.5625 -1.421875 35.59375 -1.421875 
Q 29.59375 -1.421875 25.265625 0.953125 
Q 20.953125 3.328125 18.109375 8.203125 
z
M 48.6875 27.296875 
Q 48.6875 37.203125 44.609375 42.84375 
Q 40.53125 48.484375 33.40625 48.484375 
Q 26.265625 48.484375 22.1875 42.84375 
Q 18.109375 37.203125 18.109375 27.296875 
Q 18.109375 17.390625 22.1875 11.75 
Q 26.265625 6.109375 33.40625 6.109375 
Q 40.53125 6.109375 44.609375 11.75 
Q 48.6875 17.390625 48.6875 27.296875 
z
" id="DejaVuSans-112"/>
       <path d="M 8.015625 75.875 
L 15.828125 75.875 
Q 23.140625 64.359375 26.78125 53.3125 
Q 30.421875 42.28125 30.421875 31.390625 
Q 30.421875 20.453125 26.78125 9.375 
Q 23.140625 -1.703125 15.828125 -13.1875 
L 8.015625 -13.1875 
Q 14.5 -2 17.703125 9.0625 
Q 20.90625 20.125 20.90625 31.390625 
Q 20.90625 42.671875 17.703125 53.65625 
Q 14.5 64.65625 8.015625 75.875 
z
" id="DejaVuSans-41"/>
      </defs>
      <use xlink:href="#DejaVuSans-40"/>
      <use x="39.013672" xlink:href="#DejaVuSans-83"/>
      <use x="102.490234" xlink:href="#DejaVuSans-97"/>
      <use x="163.769531" xlink:href="#DejaVuSans-109"/>
      <use x="261.181641" xlink:href="#DejaVuSans-112"/>
      <use x="324.658203" xlink:href="#DejaVuSans-108"/>
      <use x="352.441406" xlink:href="#DejaVuSans-101"/>
      <use x="413.964844" xlink:href="#DejaVuSans-32"/>
      <use x="445.751953" xlink:href="#DejaVuSans-111"/>
      <use x="506.933594" xlink:href="#DejaVuSans-102"/>
      <use x="542.138672" xlink:href="#DejaVuSans-32"/>
      <use x="573.925781" xlink:href="#DejaVuSans-49"/>
      <use x="637.548828" xlink:href="#DejaVuSans-48"/>
      <use x="701.171875" xlink:href="#DejaVuSans-48"/>
      <use x="764.794922" xlink:href="#DejaVuSans-48"/>
      <use x="828.417969" xlink:href="#DejaVuSans-48"/>
      <use x="892.041016" xlink:href="#DejaVuSans-41"/>
     </g>
    </g>
   </g>
   <g id="line2d_12">
    <path clip-path="url(#p55dd6a65a0)" d="M 46.395 302.552911 
L 49.185 302.599183 
L 51.975 302.599183 
L 54.765 302.552911 
L 57.555 301.581205 
L 60.345 300.655771 
L 63.135 299.54525 
L 65.925 297.694382 
L 68.715 295.565884 
L 71.505 295.612155 
L 74.295 293.715015 
L 77.085 291.864147 
L 79.875 292.373136 
L 82.665 292.326864 
L 85.455 291.216343 
L 88.245 289.643105 
L 91.035 289.78192 
L 93.825 290.337181 
L 96.615 289.087845 
L 99.405 290.013279 
L 102.195 287.792237 
L 104.985 289.180388 
L 107.775 290.105822 
L 110.565 288.94903 
L 113.355 290.475996 
L 116.145 289.735649 
L 118.935 290.290909 
L 121.725 289.550562 
L 124.515 289.920735 
L 127.305 291.031256 
L 130.095 291.308887 
L 132.885 291.216343 
L 135.675 293.5762 
L 138.465 293.252298 
L 141.255 294.224004 
L 144.045 294.871808 
L 146.835 295.427068 
L 149.625 296.537589 
L 152.415 294.594178 
L 155.205 296.676404 
L 157.995 296.259959 
L 160.785 296.074872 
L 163.575 296.491318 
L 166.365 296.491318 
L 169.155 297.231665 
L 171.945 297.925741 
L 174.735 297.879469 
L 177.525 298.758631 
L 180.315 299.498979 
L 183.105 299.406435 
L 185.895 299.961696 
L 188.685 300.054239 
L 191.475 300.285598 
L 194.265 300.424413 
L 197.055 300.979673 
L 199.845 300.748315 
L 202.635 301.257303 
L 205.425 301.16476 
L 208.215 301.072217 
L 211.005 301.581205 
L 213.795 301.44239 
L 216.585 301.673749 
L 219.375 301.396118 
L 222.165 301.581205 
L 224.955 301.997651 
L 227.745 301.905107 
L 230.535 301.72002 
L 233.325 301.673749 
L 236.115 302.182737 
L 238.905 302.043922 
L 241.695 301.997651 
L 244.485 301.72002 
L 247.275 301.627477 
L 250.065 302.136466 
L 252.855 301.951379 
L 255.645 302.182737 
L 258.435 301.673749 
L 261.225 302.043922 
L 264.015 301.812564 
L 266.805 302.182737 
L 269.595 301.951379 
L 272.385 301.812564 
L 275.175 302.090194 
L 277.965 301.905107 
L 280.755 301.581205 
L 283.545 301.997651 
L 286.335 302.090194 
L 289.125 301.858836 
L 291.915 301.858836 
L 294.705 301.905107 
L 297.495 301.72002 
L 300.285 301.303575 
L 303.075 301.581205 
L 305.865 301.627477 
L 308.655 301.211032 
L 311.445 301.396118 
L 314.235 300.702043 
L 317.025 300.748315 
L 319.815 300.702043 
L 322.605 301.257303 
" style="fill:none;stroke:#1f77b4;stroke-linecap:square;stroke-width:1.5;"/>
   </g>
   <g id="line2d_13">
    <path clip-path="url(#p55dd6a65a0)" d="M 46.395 274.651073 
L 49.185 262.712972 
L 51.975 265.951992 
L 54.765 269.7 
L 57.555 271.59714 
L 60.345 273.540552 
L 63.135 276.501941 
L 65.925 278.722983 
L 68.715 280.203677 
L 71.505 283.720327 
L 74.295 287.236977 
L 77.085 288.116139 
L 79.875 289.735649 
L 82.665 292.141777 
L 85.455 293.252298 
L 88.245 294.779265 
L 91.035 293.946374 
L 93.825 295.19571 
L 96.615 295.612155 
L 99.405 296.861491 
L 102.195 297.833197 
L 104.985 298.619816 
L 107.775 298.758631 
L 110.565 299.360163 
L 113.355 300.054239 
L 116.145 300.239326 
L 118.935 300.609499 
L 121.725 300.470684 
L 124.515 300.794586 
L 127.305 300.331869 
L 130.095 300.933401 
L 132.885 300.88713 
L 135.675 301.627477 
L 138.465 301.766292 
L 141.255 301.627477 
L 144.045 301.858836 
L 146.835 301.72002 
L 149.625 301.951379 
L 152.415 301.627477 
L 155.205 302.043922 
L 157.995 301.951379 
L 160.785 301.673749 
L 163.575 302.090194 
L 166.365 301.997651 
L 169.155 302.090194 
L 171.945 302.043922 
L 174.735 301.72002 
L 177.525 302.367824 
L 180.315 302.367824 
L 183.105 301.997651 
L 185.895 302.043922 
L 188.685 302.321553 
L 191.475 302.321553 
L 194.265 302.275281 
L 197.055 302.367824 
L 199.845 302.367824 
L 202.635 302.275281 
L 205.425 302.136466 
L 208.215 301.766292 
L 211.005 302.043922 
L 213.795 302.367824 
L 216.585 302.321553 
L 219.375 302.090194 
L 222.165 302.043922 
L 224.955 302.136466 
L 227.745 301.858836 
L 230.535 302.367824 
L 233.325 302.275281 
L 236.115 302.136466 
L 238.905 302.275281 
L 241.695 302.367824 
L 244.485 302.367824 
L 247.275 302.460368 
L 250.065 302.506639 
L 252.855 302.090194 
L 255.645 302.321553 
L 258.435 302.367824 
L 261.225 302.090194 
L 264.015 302.414096 
L 266.805 301.812564 
L 269.595 302.229009 
L 272.385 302.414096 
L 275.175 302.321553 
L 277.965 302.182737 
L 280.755 302.090194 
L 283.545 302.229009 
L 286.335 301.858836 
L 289.125 301.997651 
L 291.915 302.229009 
L 294.705 302.136466 
L 297.495 301.951379 
L 300.285 302.229009 
L 303.075 302.043922 
L 305.865 301.997651 
L 308.655 301.534934 
L 311.445 301.303575 
L 314.235 301.627477 
L 317.025 301.072217 
L 319.815 301.257303 
L 322.605 300.933401 
" style="fill:none;stroke:#ff7f0e;stroke-linecap:square;stroke-width:1.5;"/>
   </g>
   <g id="line2d_14">
    <path clip-path="url(#p55dd6a65a0)" d="M 46.395 160.036057 
L 49.185 218.384678 
L 51.975 251.191318 
L 54.765 268.635751 
L 57.555 277.381103 
L 60.345 283.25761 
L 63.135 289.087845 
L 65.925 292.095506 
L 68.715 294.085189 
L 71.505 295.519612 
L 74.295 297.509295 
L 77.085 298.249642 
L 79.875 299.637794 
L 82.665 300.007967 
L 85.455 299.313892 
L 88.245 300.100511 
L 91.035 300.424413 
L 93.825 300.933401 
L 96.615 300.748315 
L 99.405 300.516956 
L 102.195 301.16476 
L 104.985 301.44239 
L 107.775 301.581205 
L 110.565 301.534934 
L 113.355 301.858836 
L 116.145 301.812564 
L 118.935 301.951379 
L 121.725 302.043922 
L 124.515 301.951379 
L 127.305 302.090194 
L 130.095 301.997651 
L 132.885 302.229009 
L 135.675 302.182737 
L 138.465 302.043922 
L 141.255 302.043922 
L 144.045 301.997651 
L 146.835 302.043922 
L 149.625 302.043922 
L 152.415 302.182737 
L 155.205 302.043922 
L 157.995 302.229009 
L 160.785 302.229009 
L 163.575 302.321553 
L 166.365 302.229009 
L 169.155 302.275281 
L 171.945 302.367824 
L 174.735 302.367824 
L 177.525 302.229009 
L 180.315 302.182737 
L 183.105 302.182737 
L 185.895 302.414096 
L 188.685 302.229009 
L 191.475 302.460368 
L 194.265 302.321553 
L 197.055 302.414096 
L 199.845 302.275281 
L 202.635 302.367824 
L 205.425 302.321553 
L 208.215 302.506639 
L 211.005 302.460368 
L 213.795 302.182737 
L 216.585 302.136466 
L 219.375 302.460368 
L 222.165 302.460368 
L 224.955 302.229009 
L 227.745 302.506639 
L 230.535 302.321553 
L 233.325 302.414096 
L 236.115 302.414096 
L 238.905 302.229009 
L 241.695 302.043922 
L 244.485 302.414096 
L 247.275 302.460368 
L 250.065 302.552911 
L 252.855 302.321553 
L 255.645 302.460368 
L 258.435 302.367824 
L 261.225 302.275281 
L 264.015 302.460368 
L 266.805 302.506639 
L 269.595 302.414096 
L 272.385 302.367824 
L 275.175 302.275281 
L 277.965 302.414096 
L 280.755 302.414096 
L 283.545 302.367824 
L 286.335 302.321553 
L 289.125 302.552911 
L 291.915 302.367824 
L 294.705 302.321553 
L 297.495 302.321553 
L 300.285 302.460368 
L 303.075 302.321553 
L 305.865 302.367824 
L 308.655 301.627477 
L 311.445 301.812564 
L 314.235 301.766292 
L 317.025 301.488662 
L 319.815 301.858836 
L 322.605 301.025945 
" style="fill:none;stroke:#2ca02c;stroke-linecap:square;stroke-width:1.5;"/>
   </g>
   <g id="line2d_15">
    <path clip-path="url(#p55dd6a65a0)" d="M 46.395 302.506639 
L 49.185 302.460368 
L 51.975 301.025945 
L 54.765 298.619816 
L 57.555 294.270276 
L 60.345 291.216343 
L 63.135 287.931052 
L 65.925 286.496629 
L 68.715 286.820531 
L 71.505 284.460674 
L 74.295 284.784576 
L 77.085 282.424719 
L 79.875 281.453013 
L 82.665 279.926047 
L 85.455 281.221655 
L 88.245 279.370787 
L 91.035 280.990296 
L 93.825 283.026251 
L 96.615 284.044229 
L 99.405 285.617467 
L 102.195 284.136772 
L 104.985 286.727988 
L 107.775 289.365475 
L 110.565 290.614811 
L 113.355 291.447702 
L 116.145 292.789581 
L 118.935 294.871808 
L 121.725 295.288253 
L 124.515 295.843514 
L 127.305 297.37048 
L 130.095 298.018284 
L 132.885 298.157099 
L 135.675 299.684065 
L 138.465 299.54525 
L 141.255 299.591522 
L 144.045 300.331869 
L 146.835 300.331869 
L 149.625 300.193054 
L 152.415 301.072217 
L 155.205 300.840858 
L 157.995 301.488662 
L 160.785 301.025945 
L 163.575 301.303575 
L 166.365 301.396118 
L 169.155 302.136466 
L 171.945 301.488662 
L 174.735 301.72002 
L 177.525 302.229009 
L 180.315 301.581205 
L 183.105 301.858836 
L 185.895 301.951379 
L 188.685 301.44239 
L 191.475 301.627477 
L 194.265 301.627477 
L 197.055 301.72002 
L 199.845 301.303575 
L 202.635 301.488662 
L 205.425 301.44239 
L 208.215 301.303575 
L 211.005 301.72002 
L 213.795 301.534934 
L 216.585 301.766292 
L 219.375 301.488662 
L 222.165 301.44239 
L 224.955 301.16476 
L 227.745 301.44239 
L 230.535 301.627477 
L 233.325 301.581205 
L 236.115 301.997651 
L 238.905 302.136466 
L 241.695 302.552911 
L 244.485 302.414096 
L 247.275 302.552911 
L 250.065 302.599183 
L 252.855 302.645455 
L 255.645 302.645455 
L 258.435 302.645455 
L 261.225 302.645455 
L 264.015 302.645455 
L 266.805 302.645455 
L 269.595 302.645455 
L 272.385 302.645455 
L 275.175 302.645455 
L 277.965 302.645455 
L 280.755 302.645455 
L 283.545 302.645455 
L 286.335 302.645455 
L 289.125 302.645455 
L 291.915 302.645455 
L 294.705 302.645455 
L 297.495 302.645455 
L 300.285 302.645455 
L 303.075 302.645455 
L 305.865 302.645455 
L 308.655 302.645455 
L 311.445 302.645455 
L 314.235 302.645455 
L 317.025 302.645455 
L 319.815 302.645455 
L 322.605 302.645455 
" style="fill:none;stroke:#d62728;stroke-linecap:square;stroke-width:1.5;"/>
   </g>
   <g id="line2d_16">
    <path clip-path="url(#p55dd6a65a0)" d="M 46.395 251.237589 
L 49.185 240.363739 
L 51.975 247.99857 
L 54.765 253.227273 
L 57.555 266.044535 
L 60.345 270.486619 
L 63.135 277.936364 
L 65.925 283.81287 
L 68.715 288.856486 
L 71.505 288.671399 
L 74.295 292.095506 
L 77.085 292.697038 
L 79.875 294.640449 
L 82.665 295.612155 
L 85.455 296.630133 
L 88.245 298.203371 
L 91.035 297.879469 
L 93.825 298.388458 
L 96.615 299.360163 
L 99.405 300.100511 
L 102.195 299.637794 
L 104.985 300.054239 
L 107.775 300.655771 
L 110.565 301.16476 
L 113.355 300.88713 
L 116.145 301.812564 
L 118.935 301.534934 
L 121.725 301.581205 
L 124.515 301.812564 
L 127.305 301.766292 
L 130.095 301.951379 
L 132.885 301.44239 
L 135.675 301.72002 
L 138.465 301.766292 
L 141.255 301.812564 
L 144.045 301.72002 
L 146.835 301.812564 
L 149.625 302.090194 
L 152.415 301.534934 
L 155.205 302.043922 
L 157.995 302.090194 
L 160.785 301.951379 
L 163.575 301.997651 
L 166.365 302.275281 
L 169.155 302.136466 
L 171.945 302.136466 
L 174.735 301.997651 
L 177.525 302.182737 
L 180.315 302.043922 
L 183.105 302.275281 
L 185.895 302.090194 
L 188.685 302.136466 
L 191.475 302.275281 
L 194.265 301.997651 
L 197.055 302.414096 
L 199.845 302.321553 
L 202.635 302.136466 
L 205.425 302.229009 
L 208.215 301.858836 
L 211.005 301.951379 
L 213.795 301.951379 
L 216.585 301.951379 
L 219.375 301.951379 
L 222.165 301.072217 
L 224.955 301.488662 
L 227.745 301.349847 
L 230.535 301.44239 
L 233.325 301.997651 
L 236.115 302.182737 
L 238.905 302.275281 
L 241.695 302.275281 
L 244.485 302.506639 
L 247.275 302.460368 
L 250.065 302.599183 
L 252.855 302.645455 
L 255.645 302.645455 
L 258.435 302.645455 
L 261.225 302.645455 
L 264.015 302.645455 
L 266.805 302.645455 
L 269.595 302.645455 
L 272.385 302.645455 
L 275.175 302.645455 
L 277.965 302.645455 
L 280.755 302.645455 
L 283.545 302.645455 
L 286.335 302.645455 
L 289.125 302.645455 
L 291.915 302.645455 
L 294.705 302.645455 
L 297.495 302.645455 
L 300.285 302.645455 
L 303.075 302.645455 
L 305.865 302.645455 
L 308.655 302.645455 
L 311.445 302.645455 
L 314.235 302.645455 
L 317.025 302.645455 
L 319.815 302.645455 
L 322.605 302.645455 
" style="fill:none;stroke:#9467bd;stroke-linecap:square;stroke-width:1.5;"/>
   </g>
   <g id="line2d_17">
    <path clip-path="url(#p55dd6a65a0)" d="M 46.395 112.700102 
L 49.185 206.446578 
L 51.975 257.252911 
L 54.765 276.872114 
L 57.555 282.748621 
L 60.345 290.383453 
L 63.135 294.409091 
L 65.925 295.704699 
L 68.715 296.954035 
L 71.505 299.313892 
L 74.295 299.730337 
L 77.085 299.406435 
L 79.875 300.285598 
L 82.665 300.840858 
L 85.455 301.257303 
L 88.245 301.534934 
L 91.035 301.396118 
L 93.825 301.766292 
L 96.615 301.766292 
L 99.405 301.72002 
L 102.195 301.997651 
L 104.985 301.766292 
L 107.775 302.043922 
L 110.565 301.812564 
L 113.355 301.997651 
L 116.145 301.673749 
L 118.935 302.275281 
L 121.725 302.136466 
L 124.515 302.043922 
L 127.305 301.997651 
L 130.095 301.812564 
L 132.885 301.951379 
L 135.675 302.229009 
L 138.465 301.858836 
L 141.255 302.275281 
L 144.045 302.090194 
L 146.835 301.997651 
L 149.625 302.182737 
L 152.415 302.090194 
L 155.205 302.414096 
L 157.995 302.414096 
L 160.785 302.090194 
L 163.575 302.229009 
L 166.365 302.321553 
L 169.155 301.951379 
L 171.945 301.997651 
L 174.735 302.043922 
L 177.525 302.043922 
L 180.315 302.043922 
L 183.105 302.182737 
L 185.895 302.367824 
L 188.685 302.275281 
L 191.475 302.229009 
L 194.265 302.275281 
L 197.055 302.182737 
L 199.845 302.229009 
L 202.635 302.275281 
L 205.425 302.090194 
L 208.215 301.905107 
L 211.005 302.182737 
L 213.795 301.72002 
L 216.585 301.951379 
L 219.375 301.673749 
L 222.165 301.44239 
L 224.955 301.534934 
L 227.745 301.072217 
L 230.535 301.488662 
L 233.325 301.627477 
L 236.115 301.905107 
L 238.905 302.090194 
L 241.695 302.506639 
L 244.485 302.414096 
L 247.275 302.552911 
L 250.065 302.645455 
L 252.855 302.645455 
L 255.645 302.645455 
L 258.435 302.645455 
L 261.225 302.645455 
L 264.015 302.599183 
L 266.805 302.645455 
L 269.595 302.645455 
L 272.385 302.645455 
L 275.175 302.645455 
L 277.965 302.645455 
L 280.755 302.645455 
L 283.545 302.645455 
L 286.335 302.645455 
L 289.125 302.645455 
L 291.915 302.645455 
L 294.705 302.645455 
L 297.495 302.645455 
L 300.285 302.645455 
L 303.075 302.645455 
L 305.865 302.645455 
L 308.655 302.645455 
L 311.445 302.645455 
L 314.235 302.645455 
L 317.025 302.645455 
L 319.815 302.645455 
L 322.605 302.645455 
" style="fill:none;stroke:#8c564b;stroke-linecap:square;stroke-width:1.5;"/>
   </g>
   <g id="line2d_18">
    <path clip-path="url(#p55dd6a65a0)" d="M 46.395 301.44239 
L 49.185 295.288253 
L 51.975 285.339837 
L 54.765 276.224311 
L 57.555 269.14474 
L 60.345 263.407048 
L 63.135 259.844127 
L 65.925 259.057508 
L 68.715 262.712972 
L 71.505 266.646067 
L 74.295 272.291216 
L 77.085 276.455669 
L 79.875 282.285904 
L 82.665 284.553218 
L 85.455 288.902758 
L 88.245 291.493973 
L 91.035 294.316547 
L 93.825 296.537589 
L 96.615 298.110827 
L 99.405 299.036261 
L 102.195 299.915424 
L 104.985 300.054239 
L 107.775 300.470684 
L 110.565 300.563228 
L 113.355 301.072217 
L 116.145 300.378141 
L 118.935 301.211032 
L 121.725 300.378141 
L 124.515 300.655771 
L 127.305 300.470684 
L 130.095 300.378141 
L 132.885 300.239326 
L 135.675 300.88713 
L 138.465 300.655771 
L 141.255 301.44239 
L 144.045 301.581205 
L 146.835 302.321553 
L 149.625 302.460368 
L 152.415 302.321553 
L 155.205 302.599183 
L 157.995 302.645455 
L 160.785 302.599183 
L 163.575 302.645455 
L 166.365 302.645455 
L 169.155 302.645455 
L 171.945 302.645455 
L 174.735 302.645455 
L 177.525 302.645455 
L 180.315 302.645455 
L 183.105 302.645455 
L 185.895 302.645455 
L 188.685 302.645455 
L 191.475 302.645455 
L 194.265 302.645455 
L 197.055 302.645455 
L 199.845 302.645455 
L 202.635 302.645455 
L 205.425 302.645455 
L 208.215 302.645455 
L 211.005 302.645455 
L 213.795 302.645455 
L 216.585 302.645455 
L 219.375 302.645455 
L 222.165 302.645455 
L 224.955 302.645455 
L 227.745 302.645455 
L 230.535 302.645455 
L 233.325 302.645455 
L 236.115 302.645455 
L 238.905 302.645455 
L 241.695 302.645455 
L 244.485 302.645455 
L 247.275 302.645455 
L 250.065 302.645455 
L 252.855 302.645455 
L 255.645 302.645455 
L 258.435 302.645455 
L 261.225 302.645455 
L 264.015 302.645455 
L 266.805 302.645455 
L 269.595 302.645455 
L 272.385 302.645455 
L 275.175 302.645455 
L 277.965 302.645455 
L 280.755 302.645455 
L 283.545 302.645455 
L 286.335 302.645455 
L 289.125 302.645455 
L 291.915 302.645455 
L 294.705 302.645455 
L 297.495 302.645455 
L 300.285 302.645455 
L 303.075 302.645455 
L 305.865 302.645455 
L 308.655 302.645455 
L 311.445 302.645455 
L 314.235 302.645455 
L 317.025 302.645455 
L 319.815 302.645455 
L 322.605 302.645455 
" style="fill:none;stroke:#e377c2;stroke-linecap:square;stroke-width:1.5;"/>
   </g>
   <g id="line2d_19">
    <path clip-path="url(#p55dd6a65a0)" d="M 46.395 196.45189 
L 49.185 205.567416 
L 51.975 232.127375 
L 54.765 256.14239 
L 57.555 268.820838 
L 60.345 281.499285 
L 63.135 286.681716 
L 65.925 291.216343 
L 68.715 294.409091 
L 71.505 297.185393 
L 74.295 298.388458 
L 77.085 299.26762 
L 79.875 300.007967 
L 82.665 300.88713 
L 85.455 300.378141 
L 88.245 300.239326 
L 91.035 301.534934 
L 93.825 301.118488 
L 96.615 301.303575 
L 99.405 301.44239 
L 102.195 301.118488 
L 104.985 301.627477 
L 107.775 301.211032 
L 110.565 300.794586 
L 113.355 301.396118 
L 116.145 301.349847 
L 118.935 300.655771 
L 121.725 301.627477 
L 124.515 301.211032 
L 127.305 300.88713 
L 130.095 300.748315 
L 132.885 300.563228 
L 135.675 301.118488 
L 138.465 301.257303 
L 141.255 301.581205 
L 144.045 301.905107 
L 146.835 302.229009 
L 149.625 302.367824 
L 152.415 302.414096 
L 155.205 302.414096 
L 157.995 302.645455 
L 160.785 302.599183 
L 163.575 302.645455 
L 166.365 302.645455 
L 169.155 302.645455 
L 171.945 302.645455 
L 174.735 302.645455 
L 177.525 302.645455 
L 180.315 302.645455 
L 183.105 302.645455 
L 185.895 302.645455 
L 188.685 302.645455 
L 191.475 302.645455 
L 194.265 302.645455 
L 197.055 302.645455 
L 199.845 302.645455 
L 202.635 302.645455 
L 205.425 302.645455 
L 208.215 302.645455 
L 211.005 302.645455 
L 213.795 302.645455 
L 216.585 302.645455 
L 219.375 302.645455 
L 222.165 302.645455 
L 224.955 302.645455 
L 227.745 302.645455 
L 230.535 302.645455 
L 233.325 302.645455 
L 236.115 302.645455 
L 238.905 302.645455 
L 241.695 302.645455 
L 244.485 302.645455 
L 247.275 302.645455 
L 250.065 302.645455 
L 252.855 302.645455 
L 255.645 302.645455 
L 258.435 302.645455 
L 261.225 302.645455 
L 264.015 302.645455 
L 266.805 302.645455 
L 269.595 302.645455 
L 272.385 302.645455 
L 275.175 302.645455 
L 277.965 302.645455 
L 280.755 302.645455 
L 283.545 302.645455 
L 286.335 302.645455 
L 289.125 302.645455 
L 291.915 302.645455 
L 294.705 302.645455 
L 297.495 302.645455 
L 300.285 302.645455 
L 303.075 302.645455 
L 305.865 302.645455 
L 308.655 302.645455 
L 311.445 302.645455 
L 314.235 302.645455 
L 317.025 302.645455 
L 319.815 302.645455 
L 322.605 302.645455 
" style="fill:none;stroke:#7f7f7f;stroke-linecap:square;stroke-width:1.5;"/>
   </g>
   <g id="line2d_20">
    <path clip-path="url(#p55dd6a65a0)" d="M 46.395 55.554545 
L 49.185 205.474872 
L 51.975 264.239939 
L 54.765 282.748621 
L 57.555 292.049234 
L 60.345 295.103166 
L 63.135 298.851175 
L 65.925 299.591522 
L 68.715 299.360163 
L 71.505 300.88713 
L 74.295 300.748315 
L 77.085 301.211032 
L 79.875 301.16476 
L 82.665 301.303575 
L 85.455 301.766292 
L 88.245 301.396118 
L 91.035 301.627477 
L 93.825 301.766292 
L 96.615 301.905107 
L 99.405 301.488662 
L 102.195 301.812564 
L 104.985 301.812564 
L 107.775 301.858836 
L 110.565 301.534934 
L 113.355 301.766292 
L 116.145 301.858836 
L 118.935 301.951379 
L 121.725 301.951379 
L 124.515 301.812564 
L 127.305 301.211032 
L 130.095 300.979673 
L 132.885 301.072217 
L 135.675 301.211032 
L 138.465 301.257303 
L 141.255 301.581205 
L 144.045 301.72002 
L 146.835 302.136466 
L 149.625 302.414096 
L 152.415 302.506639 
L 155.205 302.506639 
L 157.995 302.645455 
L 160.785 302.645455 
L 163.575 302.599183 
L 166.365 302.599183 
L 169.155 302.645455 
L 171.945 302.645455 
L 174.735 302.645455 
L 177.525 302.645455 
L 180.315 302.645455 
L 183.105 302.645455 
L 185.895 302.645455 
L 188.685 302.645455 
L 191.475 302.645455 
L 194.265 302.645455 
L 197.055 302.645455 
L 199.845 302.645455 
L 202.635 302.645455 
L 205.425 302.645455 
L 208.215 302.645455 
L 211.005 302.645455 
L 213.795 302.645455 
L 216.585 302.645455 
L 219.375 302.645455 
L 222.165 302.645455 
L 224.955 302.645455 
L 227.745 302.645455 
L 230.535 302.645455 
L 233.325 302.645455 
L 236.115 302.645455 
L 238.905 302.645455 
L 241.695 302.645455 
L 244.485 302.645455 
L 247.275 302.645455 
L 250.065 302.645455 
L 252.855 302.645455 
L 255.645 302.645455 
L 258.435 302.645455 
L 261.225 302.645455 
L 264.015 302.645455 
L 266.805 302.645455 
L 269.595 302.645455 
L 272.385 302.645455 
L 275.175 302.645455 
L 277.965 302.645455 
L 280.755 302.645455 
L 283.545 302.645455 
L 286.335 302.645455 
L 289.125 302.645455 
L 291.915 302.645455 
L 294.705 302.645455 
L 297.495 302.645455 
L 300.285 302.645455 
L 303.075 302.645455 
L 305.865 302.645455 
L 308.655 302.645455 
L 311.445 302.645455 
L 314.235 302.645455 
L 317.025 302.645455 
L 319.815 302.645455 
L 322.605 302.645455 
" style="fill:none;stroke:#bcbd22;stroke-linecap:square;stroke-width:1.5;"/>
   </g>
   <g id="patch_3">
    <path d="M 45 315 
L 45 43.2 
" style="fill:none;stroke:#000000;stroke-linecap:square;stroke-linejoin:miter;stroke-width:0.8;"/>
   </g>
   <g id="patch_4">
    <path d="M 324 315 
L 324 43.2 
" style="fill:none;stroke:#000000;stroke-linecap:square;stroke-linejoin:miter;stroke-width:0.8;"/>
   </g>
   <g id="patch_5">
    <path d="M 45 315 
L 324 315 
" style="fill:none;stroke:#000000;stroke-linecap:square;stroke-linejoin:miter;stroke-width:0.8;"/>
   </g>
   <g id="patch_6">
    <path d="M 45 43.2 
L 324 43.2 
" style="fill:none;stroke:#000000;stroke-linecap:square;stroke-linejoin:miter;stroke-width:0.8;"/>
   </g>
   <g id="legend_1">
    <g id="patch_7">
     <path d="M 125.92 267.6575 
L 312.8 267.6575 
Q 316 267.6575 316 264.4575 
L 316 54.4 
Q 316 51.2 312.8 51.2 
L 125.92 51.2 
Q 122.72 51.2 122.72 54.4 
L 122.72 264.4575 
Q 122.72 267.6575 125.92 267.6575 
z
" style="fill:#ffffff;opacity:0.8;stroke:#cccccc;stroke-linejoin:miter;"/>
    </g>
    <g id="line2d_21">
     <path d="M 129.12 64.1575 
L 161.12 64.1575 
" style="fill:none;stroke:#1f77b4;stroke-linecap:square;stroke-width:1.5;"/>
    </g>
    <g id="line2d_22"/>
    <g id="text_14">
     <!-- $G = 1.0,~\gamma = 1.0$ -->
     <g transform="translate(173.92 69.7575)scale(0.16 -0.16)">
      <defs>
       <path d="M 54.59375 10.890625 
L 58.40625 29.984375 
L 42.1875 29.984375 
L 43.703125 38.09375 
L 69.578125 38.09375 
L 63.28125 6 
Q 56.78125 2.4375 49.109375 0.5 
Q 41.453125 -1.421875 33.6875 -1.421875 
Q 19.96875 -1.421875 12.234375 6.1875 
Q 4.5 13.8125 4.5 27.390625 
Q 4.5 38.671875 9.203125 48.84375 
Q 13.921875 59.03125 22.21875 65.828125 
Q 27.4375 70.0625 33.640625 72.140625 
Q 39.84375 74.21875 47.40625 74.21875 
Q 54.25 74.21875 60.515625 72.484375 
Q 66.796875 70.75 72.515625 67.28125 
L 70.515625 56.78125 
Q 66.109375 61.375 60.203125 63.796875 
Q 54.296875 66.21875 47.609375 66.21875 
Q 39.84375 66.21875 33.9375 63.25 
Q 28.03125 60.296875 23.390625 54.109375 
Q 19.4375 48.828125 17.15625 41.671875 
Q 14.890625 34.515625 14.890625 27.09375 
Q 14.890625 16.890625 20.109375 11.734375 
Q 25.34375 6.59375 35.6875 6.59375 
Q 40.875 6.59375 45.703125 7.6875 
Q 50.53125 8.796875 54.59375 10.890625 
z
" id="DejaVuSans-Oblique-71"/>
       <path d="M 10.59375 45.40625 
L 73.1875 45.40625 
L 73.1875 37.203125 
L 10.59375 37.203125 
z
M 10.59375 25.484375 
L 73.1875 25.484375 
L 73.1875 17.1875 
L 10.59375 17.1875 
z
" id="DejaVuSans-61"/>
       <path d="M 11.71875 12.40625 
L 22.015625 12.40625 
L 22.015625 4 
L 14.015625 -11.625 
L 7.71875 -11.625 
L 11.71875 4 
z
" id="DejaVuSans-44"/>
       <path d="M 23.296875 46.09375 
L 28.71875 12.3125 
L 54 54.6875 
L 63.53125 54.6875 
L 30.8125 0 
L 26.765625 -20.796875 
L 17.78125 -20.796875 
L 21.828125 0 
L 15.4375 40.828125 
Q 14.453125 46.96875 9.8125 46.96875 
L 7.421875 46.96875 
L 8.890625 54.6875 
L 12.3125 54.6875 
Q 21.921875 54.6875 23.296875 46.09375 
z
" id="DejaVuSans-Oblique-947"/>
      </defs>
      <use transform="translate(0 0.78125)" xlink:href="#DejaVuSans-Oblique-71"/>
      <use transform="translate(96.972656 0.78125)" xlink:href="#DejaVuSans-61"/>
      <use transform="translate(200.244141 0.78125)" xlink:href="#DejaVuSans-49"/>
      <use transform="translate(263.867188 0.78125)" xlink:href="#DejaVuSans-46"/>
      <use transform="translate(295.654297 0.78125)" xlink:href="#DejaVuSans-48"/>
      <use transform="translate(359.277344 0.78125)" xlink:href="#DejaVuSans-44"/>
      <use transform="translate(443.017253 0.78125)" xlink:href="#DejaVuSans-Oblique-947"/>
      <use transform="translate(521.679363 0.78125)" xlink:href="#DejaVuSans-61"/>
      <use transform="translate(624.950847 0.78125)" xlink:href="#DejaVuSans-49"/>
      <use transform="translate(688.573894 0.78125)" xlink:href="#DejaVuSans-46"/>
      <use transform="translate(720.361003 0.78125)" xlink:href="#DejaVuSans-48"/>
     </g>
    </g>
    <g id="line2d_23">
     <path d="M 129.12 87.675 
L 161.12 87.675 
" style="fill:none;stroke:#ff7f0e;stroke-linecap:square;stroke-width:1.5;"/>
    </g>
    <g id="line2d_24"/>
    <g id="text_15">
     <!-- $G = 1.0,~\gamma = 2.0$ -->
     <g transform="translate(173.92 93.275)scale(0.16 -0.16)">
      <use transform="translate(0 0.78125)" xlink:href="#DejaVuSans-Oblique-71"/>
      <use transform="translate(96.972656 0.78125)" xlink:href="#DejaVuSans-61"/>
      <use transform="translate(200.244141 0.78125)" xlink:href="#DejaVuSans-49"/>
      <use transform="translate(263.867188 0.78125)" xlink:href="#DejaVuSans-46"/>
      <use transform="translate(295.654297 0.78125)" xlink:href="#DejaVuSans-48"/>
      <use transform="translate(359.277344 0.78125)" xlink:href="#DejaVuSans-44"/>
      <use transform="translate(443.017253 0.78125)" xlink:href="#DejaVuSans-Oblique-947"/>
      <use transform="translate(521.679363 0.78125)" xlink:href="#DejaVuSans-61"/>
      <use transform="translate(624.950847 0.78125)" xlink:href="#DejaVuSans-50"/>
      <use transform="translate(688.573894 0.78125)" xlink:href="#DejaVuSans-46"/>
      <use transform="translate(720.361003 0.78125)" xlink:href="#DejaVuSans-48"/>
     </g>
    </g>
    <g id="line2d_25">
     <path d="M 129.12 111.1925 
L 161.12 111.1925 
" style="fill:none;stroke:#2ca02c;stroke-linecap:square;stroke-width:1.5;"/>
    </g>
    <g id="line2d_26"/>
    <g id="text_16">
     <!-- $G = 1.0,~\gamma = 3.0$ -->
     <g transform="translate(173.92 116.7925)scale(0.16 -0.16)">
      <use transform="translate(0 0.78125)" xlink:href="#DejaVuSans-Oblique-71"/>
      <use transform="translate(96.972656 0.78125)" xlink:href="#DejaVuSans-61"/>
      <use transform="translate(200.244141 0.78125)" xlink:href="#DejaVuSans-49"/>
      <use transform="translate(263.867188 0.78125)" xlink:href="#DejaVuSans-46"/>
      <use transform="translate(295.654297 0.78125)" xlink:href="#DejaVuSans-48"/>
      <use transform="translate(359.277344 0.78125)" xlink:href="#DejaVuSans-44"/>
      <use transform="translate(443.017253 0.78125)" xlink:href="#DejaVuSans-Oblique-947"/>
      <use transform="translate(521.679363 0.78125)" xlink:href="#DejaVuSans-61"/>
      <use transform="translate(624.950847 0.78125)" xlink:href="#DejaVuSans-51"/>
      <use transform="translate(688.573894 0.78125)" xlink:href="#DejaVuSans-46"/>
      <use transform="translate(720.361003 0.78125)" xlink:href="#DejaVuSans-48"/>
     </g>
    </g>
    <g id="line2d_27">
     <path d="M 129.12 134.71 
L 161.12 134.71 
" style="fill:none;stroke:#d62728;stroke-linecap:square;stroke-width:1.5;"/>
    </g>
    <g id="line2d_28"/>
    <g id="text_17">
     <!-- $G = 0.66,~\gamma = 1.0$ -->
     <g transform="translate(173.92 140.31)scale(0.16 -0.16)">
      <defs>
       <path d="M 33.015625 40.375 
Q 26.375 40.375 22.484375 35.828125 
Q 18.609375 31.296875 18.609375 23.390625 
Q 18.609375 15.53125 22.484375 10.953125 
Q 26.375 6.390625 33.015625 6.390625 
Q 39.65625 6.390625 43.53125 10.953125 
Q 47.40625 15.53125 47.40625 23.390625 
Q 47.40625 31.296875 43.53125 35.828125 
Q 39.65625 40.375 33.015625 40.375 
z
M 52.59375 71.296875 
L 52.59375 62.3125 
Q 48.875 64.0625 45.09375 64.984375 
Q 41.3125 65.921875 37.59375 65.921875 
Q 27.828125 65.921875 22.671875 59.328125 
Q 17.53125 52.734375 16.796875 39.40625 
Q 19.671875 43.65625 24.015625 45.921875 
Q 28.375 48.1875 33.59375 48.1875 
Q 44.578125 48.1875 50.953125 41.515625 
Q 57.328125 34.859375 57.328125 23.390625 
Q 57.328125 12.15625 50.6875 5.359375 
Q 44.046875 -1.421875 33.015625 -1.421875 
Q 20.359375 -1.421875 13.671875 8.265625 
Q 6.984375 17.96875 6.984375 36.375 
Q 6.984375 53.65625 15.1875 63.9375 
Q 23.390625 74.21875 37.203125 74.21875 
Q 40.921875 74.21875 44.703125 73.484375 
Q 48.484375 72.75 52.59375 71.296875 
z
" id="DejaVuSans-54"/>
      </defs>
      <use transform="translate(0 0.78125)" xlink:href="#DejaVuSans-Oblique-71"/>
      <use transform="translate(96.972656 0.78125)" xlink:href="#DejaVuSans-61"/>
      <use transform="translate(200.244141 0.78125)" xlink:href="#DejaVuSans-48"/>
      <use transform="translate(263.867188 0.78125)" xlink:href="#DejaVuSans-46"/>
      <use transform="translate(295.654297 0.78125)" xlink:href="#DejaVuSans-54"/>
      <use transform="translate(359.277344 0.78125)" xlink:href="#DejaVuSans-54"/>
      <use transform="translate(422.900391 0.78125)" xlink:href="#DejaVuSans-44"/>
      <use transform="translate(506.6403 0.78125)" xlink:href="#DejaVuSans-Oblique-947"/>
      <use transform="translate(585.30241 0.78125)" xlink:href="#DejaVuSans-61"/>
      <use transform="translate(688.573894 0.78125)" xlink:href="#DejaVuSans-49"/>
      <use transform="translate(752.196941 0.78125)" xlink:href="#DejaVuSans-46"/>
      <use transform="translate(783.98405 0.78125)" xlink:href="#DejaVuSans-48"/>
     </g>
    </g>
    <g id="line2d_29">
     <path d="M 129.12 158.2275 
L 161.12 158.2275 
" style="fill:none;stroke:#9467bd;stroke-linecap:square;stroke-width:1.5;"/>
    </g>
    <g id="line2d_30"/>
    <g id="text_18">
     <!-- $G = 0.66,~\gamma = 2.0$ -->
     <g transform="translate(173.92 163.8275)scale(0.16 -0.16)">
      <use transform="translate(0 0.78125)" xlink:href="#DejaVuSans-Oblique-71"/>
      <use transform="translate(96.972656 0.78125)" xlink:href="#DejaVuSans-61"/>
      <use transform="translate(200.244141 0.78125)" xlink:href="#DejaVuSans-48"/>
      <use transform="translate(263.867188 0.78125)" xlink:href="#DejaVuSans-46"/>
      <use transform="translate(295.654297 0.78125)" xlink:href="#DejaVuSans-54"/>
      <use transform="translate(359.277344 0.78125)" xlink:href="#DejaVuSans-54"/>
      <use transform="translate(422.900391 0.78125)" xlink:href="#DejaVuSans-44"/>
      <use transform="translate(506.6403 0.78125)" xlink:href="#DejaVuSans-Oblique-947"/>
      <use transform="translate(585.30241 0.78125)" xlink:href="#DejaVuSans-61"/>
      <use transform="translate(688.573894 0.78125)" xlink:href="#DejaVuSans-50"/>
      <use transform="translate(752.196941 0.78125)" xlink:href="#DejaVuSans-46"/>
      <use transform="translate(783.98405 0.78125)" xlink:href="#DejaVuSans-48"/>
     </g>
    </g>
    <g id="line2d_31">
     <path d="M 129.12 181.745 
L 161.12 181.745 
" style="fill:none;stroke:#8c564b;stroke-linecap:square;stroke-width:1.5;"/>
    </g>
    <g id="line2d_32"/>
    <g id="text_19">
     <!-- $G = 0.66,~\gamma = 3.0$ -->
     <g transform="translate(173.92 187.345)scale(0.16 -0.16)">
      <use transform="translate(0 0.78125)" xlink:href="#DejaVuSans-Oblique-71"/>
      <use transform="translate(96.972656 0.78125)" xlink:href="#DejaVuSans-61"/>
      <use transform="translate(200.244141 0.78125)" xlink:href="#DejaVuSans-48"/>
      <use transform="translate(263.867188 0.78125)" xlink:href="#DejaVuSans-46"/>
      <use transform="translate(295.654297 0.78125)" xlink:href="#DejaVuSans-54"/>
      <use transform="translate(359.277344 0.78125)" xlink:href="#DejaVuSans-54"/>
      <use transform="translate(422.900391 0.78125)" xlink:href="#DejaVuSans-44"/>
      <use transform="translate(506.6403 0.78125)" xlink:href="#DejaVuSans-Oblique-947"/>
      <use transform="translate(585.30241 0.78125)" xlink:href="#DejaVuSans-61"/>
      <use transform="translate(688.573894 0.78125)" xlink:href="#DejaVuSans-51"/>
      <use transform="translate(752.196941 0.78125)" xlink:href="#DejaVuSans-46"/>
      <use transform="translate(783.98405 0.78125)" xlink:href="#DejaVuSans-48"/>
     </g>
    </g>
    <g id="line2d_33">
     <path d="M 129.12 205.2625 
L 161.12 205.2625 
" style="fill:none;stroke:#e377c2;stroke-linecap:square;stroke-width:1.5;"/>
    </g>
    <g id="line2d_34"/>
    <g id="text_20">
     <!-- $G = 0.33,~\gamma = 1.0$ -->
     <g transform="translate(173.92 210.8625)scale(0.16 -0.16)">
      <use transform="translate(0 0.78125)" xlink:href="#DejaVuSans-Oblique-71"/>
      <use transform="translate(96.972656 0.78125)" xlink:href="#DejaVuSans-61"/>
      <use transform="translate(200.244141 0.78125)" xlink:href="#DejaVuSans-48"/>
      <use transform="translate(263.867188 0.78125)" xlink:href="#DejaVuSans-46"/>
      <use transform="translate(295.654297 0.78125)" xlink:href="#DejaVuSans-51"/>
      <use transform="translate(359.277344 0.78125)" xlink:href="#DejaVuSans-51"/>
      <use transform="translate(422.900391 0.78125)" xlink:href="#DejaVuSans-44"/>
      <use transform="translate(506.6403 0.78125)" xlink:href="#DejaVuSans-Oblique-947"/>
      <use transform="translate(585.30241 0.78125)" xlink:href="#DejaVuSans-61"/>
      <use transform="translate(688.573894 0.78125)" xlink:href="#DejaVuSans-49"/>
      <use transform="translate(752.196941 0.78125)" xlink:href="#DejaVuSans-46"/>
      <use transform="translate(783.98405 0.78125)" xlink:href="#DejaVuSans-48"/>
     </g>
    </g>
    <g id="line2d_35">
     <path d="M 129.12 228.78 
L 161.12 228.78 
" style="fill:none;stroke:#7f7f7f;stroke-linecap:square;stroke-width:1.5;"/>
    </g>
    <g id="line2d_36"/>
    <g id="text_21">
     <!-- $G = 0.33,~\gamma = 2.0$ -->
     <g transform="translate(173.92 234.38)scale(0.16 -0.16)">
      <use transform="translate(0 0.78125)" xlink:href="#DejaVuSans-Oblique-71"/>
      <use transform="translate(96.972656 0.78125)" xlink:href="#DejaVuSans-61"/>
      <use transform="translate(200.244141 0.78125)" xlink:href="#DejaVuSans-48"/>
      <use transform="translate(263.867188 0.78125)" xlink:href="#DejaVuSans-46"/>
      <use transform="translate(295.654297 0.78125)" xlink:href="#DejaVuSans-51"/>
      <use transform="translate(359.277344 0.78125)" xlink:href="#DejaVuSans-51"/>
      <use transform="translate(422.900391 0.78125)" xlink:href="#DejaVuSans-44"/>
      <use transform="translate(506.6403 0.78125)" xlink:href="#DejaVuSans-Oblique-947"/>
      <use transform="translate(585.30241 0.78125)" xlink:href="#DejaVuSans-61"/>
      <use transform="translate(688.573894 0.78125)" xlink:href="#DejaVuSans-50"/>
      <use transform="translate(752.196941 0.78125)" xlink:href="#DejaVuSans-46"/>
      <use transform="translate(783.98405 0.78125)" xlink:href="#DejaVuSans-48"/>
     </g>
    </g>
    <g id="line2d_37">
     <path d="M 129.12 252.2975 
L 161.12 252.2975 
" style="fill:none;stroke:#bcbd22;stroke-linecap:square;stroke-width:1.5;"/>
    </g>
    <g id="line2d_38"/>
    <g id="text_22">
     <!-- $G = 0.33,~\gamma = 3.0$ -->
     <g transform="translate(173.92 257.8975)scale(0.16 -0.16)">
      <use transform="translate(0 0.78125)" xlink:href="#DejaVuSans-Oblique-71"/>
      <use transform="translate(96.972656 0.78125)" xlink:href="#DejaVuSans-61"/>
      <use transform="translate(200.244141 0.78125)" xlink:href="#DejaVuSans-48"/>
      <use transform="translate(263.867188 0.78125)" xlink:href="#DejaVuSans-46"/>
      <use transform="translate(295.654297 0.78125)" xlink:href="#DejaVuSans-51"/>
      <use transform="translate(359.277344 0.78125)" xlink:href="#DejaVuSans-51"/>
      <use transform="translate(422.900391 0.78125)" xlink:href="#DejaVuSans-44"/>
      <use transform="translate(506.6403 0.78125)" xlink:href="#DejaVuSans-Oblique-947"/>
      <use transform="translate(585.30241 0.78125)" xlink:href="#DejaVuSans-61"/>
      <use transform="translate(688.573894 0.78125)" xlink:href="#DejaVuSans-51"/>
      <use transform="translate(752.196941 0.78125)" xlink:href="#DejaVuSans-46"/>
      <use transform="translate(783.98405 0.78125)" xlink:href="#DejaVuSans-48"/>
     </g>
    </g>
   </g>
  </g>
 </g>
 <defs>
  <clipPath id="p55dd6a65a0">
   <rect height="271.8" width="279" x="45" y="43.2"/>
  </clipPath>
 </defs>
</svg>
