<?xml version="1.0" encoding="utf-8" standalone="no"?>
<!DOCTYPE svg PUBLIC "-//W3C//DTD SVG 1.1//EN"
  "http://www.w3.org/Graphics/SVG/1.1/DTD/svg11.dtd">
<!-- Created with matplotlib (https://matplotlib.org/) -->
<svg height="360pt" version="1.1" viewBox="0 0 360 360" width="360pt" xmlns="http://www.w3.org/2000/svg" xmlns:xlink="http://www.w3.org/1999/xlink">
 <metadata>
  <rdf:RDF xmlns:cc="http://creativecommons.org/ns#" xmlns:dc="http://purl.org/dc/elements/1.1/" xmlns:rdf="http://www.w3.org/1999/02/22-rdf-syntax-ns#">
   <cc:Work>
    <dc:type rdf:resource="http://purl.org/dc/dcmitype/StillImage"/>
    <dc:date>2020-10-30T13:39:21.543800</dc:date>
    <dc:format>image/svg+xml</dc:format>
    <dc:creator>
     <cc:Agent>
      <dc:title>Matplotlib v3.3.2, https://matplotlib.org/</dc:title>
     </cc:Agent>
    </dc:creator>
   </cc:Work>
  </rdf:RDF>
 </metadata>
 <defs>
  <style type="text/css">*{stroke-linecap:butt;stroke-linejoin:round;}</style>
 </defs>
 <g id="figure_1">
  <g id="patch_1">
   <path d="M 0 360 
L 360 360 
L 360 0 
L 0 0 
z
" style="fill:none;"/>
  </g>
  <g id="axes_1">
   <g id="patch_2">
    <path d="M 45 315 
L 324 315 
L 324 43.2 
L 45 43.2 
z
" style="fill:#ffffff;"/>
   </g>
   <g id="matplotlib.axis_1">
    <g id="xtick_1">
     <g id="line2d_1">
      <defs>
       <path d="M 0 0 
L 0 3.5 
" id="m4908369ed1" style="stroke:#000000;stroke-width:0.8;"/>
      </defs>
      <g>
       <use style="stroke:#000000;stroke-width:0.8;" x="45" xlink:href="#m4908369ed1" y="315"/>
      </g>
     </g>
     <g id="text_1">
      <!-- 0 -->
      <g transform="translate(39.91 334.1575)scale(0.16 -0.16)">
       <defs>
        <path d="M 31.78125 66.40625 
Q 24.171875 66.40625 20.328125 58.90625 
Q 16.5 51.421875 16.5 36.375 
Q 16.5 21.390625 20.328125 13.890625 
Q 24.171875 6.390625 31.78125 6.390625 
Q 39.453125 6.390625 43.28125 13.890625 
Q 47.125 21.390625 47.125 36.375 
Q 47.125 51.421875 43.28125 58.90625 
Q 39.453125 66.40625 31.78125 66.40625 
z
M 31.78125 74.21875 
Q 44.046875 74.21875 50.515625 64.515625 
Q 56.984375 54.828125 56.984375 36.375 
Q 56.984375 17.96875 50.515625 8.265625 
Q 44.046875 -1.421875 31.78125 -1.421875 
Q 19.53125 -1.421875 13.0625 8.265625 
Q 6.59375 17.96875 6.59375 36.375 
Q 6.59375 54.828125 13.0625 64.515625 
Q 19.53125 74.21875 31.78125 74.21875 
z
" id="DejaVuSans-48"/>
       </defs>
       <use xlink:href="#DejaVuSans-48"/>
      </g>
     </g>
    </g>
    <g id="xtick_2">
     <g id="line2d_2">
      <g>
       <use style="stroke:#000000;stroke-width:0.8;" x="108.122172" xlink:href="#m4908369ed1" y="315"/>
      </g>
     </g>
     <g id="text_2">
      <!-- 100 -->
      <g transform="translate(92.852172 334.1575)scale(0.16 -0.16)">
       <defs>
        <path d="M 12.40625 8.296875 
L 28.515625 8.296875 
L 28.515625 63.921875 
L 10.984375 60.40625 
L 10.984375 69.390625 
L 28.421875 72.90625 
L 38.28125 72.90625 
L 38.28125 8.296875 
L 54.390625 8.296875 
L 54.390625 0 
L 12.40625 0 
z
" id="DejaVuSans-49"/>
       </defs>
       <use xlink:href="#DejaVuSans-49"/>
       <use x="63.623047" xlink:href="#DejaVuSans-48"/>
       <use x="127.246094" xlink:href="#DejaVuSans-48"/>
      </g>
     </g>
    </g>
    <g id="xtick_3">
     <g id="line2d_3">
      <g>
       <use style="stroke:#000000;stroke-width:0.8;" x="171.244344" xlink:href="#m4908369ed1" y="315"/>
      </g>
     </g>
     <g id="text_3">
      <!-- 200 -->
      <g transform="translate(155.974344 334.1575)scale(0.16 -0.16)">
       <defs>
        <path d="M 19.1875 8.296875 
L 53.609375 8.296875 
L 53.609375 0 
L 7.328125 0 
L 7.328125 8.296875 
Q 12.9375 14.109375 22.625 23.890625 
Q 32.328125 33.6875 34.8125 36.53125 
Q 39.546875 41.84375 41.421875 45.53125 
Q 43.3125 49.21875 43.3125 52.78125 
Q 43.3125 58.59375 39.234375 62.25 
Q 35.15625 65.921875 28.609375 65.921875 
Q 23.96875 65.921875 18.8125 64.3125 
Q 13.671875 62.703125 7.8125 59.421875 
L 7.8125 69.390625 
Q 13.765625 71.78125 18.9375 73 
Q 24.125 74.21875 28.421875 74.21875 
Q 39.75 74.21875 46.484375 68.546875 
Q 53.21875 62.890625 53.21875 53.421875 
Q 53.21875 48.921875 51.53125 44.890625 
Q 49.859375 40.875 45.40625 35.40625 
Q 44.1875 33.984375 37.640625 27.21875 
Q 31.109375 20.453125 19.1875 8.296875 
z
" id="DejaVuSans-50"/>
       </defs>
       <use xlink:href="#DejaVuSans-50"/>
       <use x="63.623047" xlink:href="#DejaVuSans-48"/>
       <use x="127.246094" xlink:href="#DejaVuSans-48"/>
      </g>
     </g>
    </g>
    <g id="xtick_4">
     <g id="line2d_4">
      <g>
       <use style="stroke:#000000;stroke-width:0.8;" x="234.366516" xlink:href="#m4908369ed1" y="315"/>
      </g>
     </g>
     <g id="text_4">
      <!-- 300 -->
      <g transform="translate(219.096516 334.1575)scale(0.16 -0.16)">
       <defs>
        <path d="M 40.578125 39.3125 
Q 47.65625 37.796875 51.625 33 
Q 55.609375 28.21875 55.609375 21.1875 
Q 55.609375 10.40625 48.1875 4.484375 
Q 40.765625 -1.421875 27.09375 -1.421875 
Q 22.515625 -1.421875 17.65625 -0.515625 
Q 12.796875 0.390625 7.625 2.203125 
L 7.625 11.71875 
Q 11.71875 9.328125 16.59375 8.109375 
Q 21.484375 6.890625 26.8125 6.890625 
Q 36.078125 6.890625 40.9375 10.546875 
Q 45.796875 14.203125 45.796875 21.1875 
Q 45.796875 27.640625 41.28125 31.265625 
Q 36.765625 34.90625 28.71875 34.90625 
L 20.21875 34.90625 
L 20.21875 43.015625 
L 29.109375 43.015625 
Q 36.375 43.015625 40.234375 45.921875 
Q 44.09375 48.828125 44.09375 54.296875 
Q 44.09375 59.90625 40.109375 62.90625 
Q 36.140625 65.921875 28.71875 65.921875 
Q 24.65625 65.921875 20.015625 65.03125 
Q 15.375 64.15625 9.8125 62.3125 
L 9.8125 71.09375 
Q 15.4375 72.65625 20.34375 73.4375 
Q 25.25 74.21875 29.59375 74.21875 
Q 40.828125 74.21875 47.359375 69.109375 
Q 53.90625 64.015625 53.90625 55.328125 
Q 53.90625 49.265625 50.4375 45.09375 
Q 46.96875 40.921875 40.578125 39.3125 
z
" id="DejaVuSans-51"/>
       </defs>
       <use xlink:href="#DejaVuSans-51"/>
       <use x="63.623047" xlink:href="#DejaVuSans-48"/>
       <use x="127.246094" xlink:href="#DejaVuSans-48"/>
      </g>
     </g>
    </g>
    <g id="xtick_5">
     <g id="line2d_5">
      <g>
       <use style="stroke:#000000;stroke-width:0.8;" x="297.488688" xlink:href="#m4908369ed1" y="315"/>
      </g>
     </g>
     <g id="text_5">
      <!-- 400 -->
      <g transform="translate(282.218688 334.1575)scale(0.16 -0.16)">
       <defs>
        <path d="M 37.796875 64.3125 
L 12.890625 25.390625 
L 37.796875 25.390625 
z
M 35.203125 72.90625 
L 47.609375 72.90625 
L 47.609375 25.390625 
L 58.015625 25.390625 
L 58.015625 17.1875 
L 47.609375 17.1875 
L 47.609375 0 
L 37.796875 0 
L 37.796875 17.1875 
L 4.890625 17.1875 
L 4.890625 26.703125 
z
" id="DejaVuSans-52"/>
       </defs>
       <use xlink:href="#DejaVuSans-52"/>
       <use x="63.623047" xlink:href="#DejaVuSans-48"/>
       <use x="127.246094" xlink:href="#DejaVuSans-48"/>
      </g>
     </g>
    </g>
    <g id="text_6">
     <!-- Pixel Magnitude -->
     <g transform="translate(121.0775 353.6425)scale(0.16 -0.16)">
      <defs>
       <path d="M 19.671875 64.796875 
L 19.671875 37.40625 
L 32.078125 37.40625 
Q 38.96875 37.40625 42.71875 40.96875 
Q 46.484375 44.53125 46.484375 51.125 
Q 46.484375 57.671875 42.71875 61.234375 
Q 38.96875 64.796875 32.078125 64.796875 
z
M 9.8125 72.90625 
L 32.078125 72.90625 
Q 44.34375 72.90625 50.609375 67.359375 
Q 56.890625 61.8125 56.890625 51.125 
Q 56.890625 40.328125 50.609375 34.8125 
Q 44.34375 29.296875 32.078125 29.296875 
L 19.671875 29.296875 
L 19.671875 0 
L 9.8125 0 
z
" id="DejaVuSans-80"/>
       <path d="M 9.421875 54.6875 
L 18.40625 54.6875 
L 18.40625 0 
L 9.421875 0 
z
M 9.421875 75.984375 
L 18.40625 75.984375 
L 18.40625 64.59375 
L 9.421875 64.59375 
z
" id="DejaVuSans-105"/>
       <path d="M 54.890625 54.6875 
L 35.109375 28.078125 
L 55.90625 0 
L 45.3125 0 
L 29.390625 21.484375 
L 13.484375 0 
L 2.875 0 
L 24.125 28.609375 
L 4.6875 54.6875 
L 15.28125 54.6875 
L 29.78125 35.203125 
L 44.28125 54.6875 
z
" id="DejaVuSans-120"/>
       <path d="M 56.203125 29.59375 
L 56.203125 25.203125 
L 14.890625 25.203125 
Q 15.484375 15.921875 20.484375 11.0625 
Q 25.484375 6.203125 34.421875 6.203125 
Q 39.59375 6.203125 44.453125 7.46875 
Q 49.3125 8.734375 54.109375 11.28125 
L 54.109375 2.78125 
Q 49.265625 0.734375 44.1875 -0.34375 
Q 39.109375 -1.421875 33.890625 -1.421875 
Q 20.796875 -1.421875 13.15625 6.1875 
Q 5.515625 13.8125 5.515625 26.8125 
Q 5.515625 40.234375 12.765625 48.109375 
Q 20.015625 56 32.328125 56 
Q 43.359375 56 49.78125 48.890625 
Q 56.203125 41.796875 56.203125 29.59375 
z
M 47.21875 32.234375 
Q 47.125 39.59375 43.09375 43.984375 
Q 39.0625 48.390625 32.421875 48.390625 
Q 24.90625 48.390625 20.390625 44.140625 
Q 15.875 39.890625 15.1875 32.171875 
z
" id="DejaVuSans-101"/>
       <path d="M 9.421875 75.984375 
L 18.40625 75.984375 
L 18.40625 0 
L 9.421875 0 
z
" id="DejaVuSans-108"/>
       <path id="DejaVuSans-32"/>
       <path d="M 9.8125 72.90625 
L 24.515625 72.90625 
L 43.109375 23.296875 
L 61.8125 72.90625 
L 76.515625 72.90625 
L 76.515625 0 
L 66.890625 0 
L 66.890625 64.015625 
L 48.09375 14.015625 
L 38.1875 14.015625 
L 19.390625 64.015625 
L 19.390625 0 
L 9.8125 0 
z
" id="DejaVuSans-77"/>
       <path d="M 34.28125 27.484375 
Q 23.390625 27.484375 19.1875 25 
Q 14.984375 22.515625 14.984375 16.5 
Q 14.984375 11.71875 18.140625 8.90625 
Q 21.296875 6.109375 26.703125 6.109375 
Q 34.1875 6.109375 38.703125 11.40625 
Q 43.21875 16.703125 43.21875 25.484375 
L 43.21875 27.484375 
z
M 52.203125 31.203125 
L 52.203125 0 
L 43.21875 0 
L 43.21875 8.296875 
Q 40.140625 3.328125 35.546875 0.953125 
Q 30.953125 -1.421875 24.3125 -1.421875 
Q 15.921875 -1.421875 10.953125 3.296875 
Q 6 8.015625 6 15.921875 
Q 6 25.140625 12.171875 29.828125 
Q 18.359375 34.515625 30.609375 34.515625 
L 43.21875 34.515625 
L 43.21875 35.40625 
Q 43.21875 41.609375 39.140625 45 
Q 35.0625 48.390625 27.6875 48.390625 
Q 23 48.390625 18.546875 47.265625 
Q 14.109375 46.140625 10.015625 43.890625 
L 10.015625 52.203125 
Q 14.9375 54.109375 19.578125 55.046875 
Q 24.21875 56 28.609375 56 
Q 40.484375 56 46.34375 49.84375 
Q 52.203125 43.703125 52.203125 31.203125 
z
" id="DejaVuSans-97"/>
       <path d="M 45.40625 27.984375 
Q 45.40625 37.75 41.375 43.109375 
Q 37.359375 48.484375 30.078125 48.484375 
Q 22.859375 48.484375 18.828125 43.109375 
Q 14.796875 37.75 14.796875 27.984375 
Q 14.796875 18.265625 18.828125 12.890625 
Q 22.859375 7.515625 30.078125 7.515625 
Q 37.359375 7.515625 41.375 12.890625 
Q 45.40625 18.265625 45.40625 27.984375 
z
M 54.390625 6.78125 
Q 54.390625 -7.171875 48.1875 -13.984375 
Q 42 -20.796875 29.203125 -20.796875 
Q 24.46875 -20.796875 20.265625 -20.09375 
Q 16.0625 -19.390625 12.109375 -17.921875 
L 12.109375 -9.1875 
Q 16.0625 -11.328125 19.921875 -12.34375 
Q 23.78125 -13.375 27.78125 -13.375 
Q 36.625 -13.375 41.015625 -8.765625 
Q 45.40625 -4.15625 45.40625 5.171875 
L 45.40625 9.625 
Q 42.625 4.78125 38.28125 2.390625 
Q 33.9375 0 27.875 0 
Q 17.828125 0 11.671875 7.65625 
Q 5.515625 15.328125 5.515625 27.984375 
Q 5.515625 40.671875 11.671875 48.328125 
Q 17.828125 56 27.875 56 
Q 33.9375 56 38.28125 53.609375 
Q 42.625 51.21875 45.40625 46.390625 
L 45.40625 54.6875 
L 54.390625 54.6875 
z
" id="DejaVuSans-103"/>
       <path d="M 54.890625 33.015625 
L 54.890625 0 
L 45.90625 0 
L 45.90625 32.71875 
Q 45.90625 40.484375 42.875 44.328125 
Q 39.84375 48.1875 33.796875 48.1875 
Q 26.515625 48.1875 22.3125 43.546875 
Q 18.109375 38.921875 18.109375 30.90625 
L 18.109375 0 
L 9.078125 0 
L 9.078125 54.6875 
L 18.109375 54.6875 
L 18.109375 46.1875 
Q 21.34375 51.125 25.703125 53.5625 
Q 30.078125 56 35.796875 56 
Q 45.21875 56 50.046875 50.171875 
Q 54.890625 44.34375 54.890625 33.015625 
z
" id="DejaVuSans-110"/>
       <path d="M 18.3125 70.21875 
L 18.3125 54.6875 
L 36.8125 54.6875 
L 36.8125 47.703125 
L 18.3125 47.703125 
L 18.3125 18.015625 
Q 18.3125 11.328125 20.140625 9.421875 
Q 21.96875 7.515625 27.59375 7.515625 
L 36.8125 7.515625 
L 36.8125 0 
L 27.59375 0 
Q 17.1875 0 13.234375 3.875 
Q 9.28125 7.765625 9.28125 18.015625 
L 9.28125 47.703125 
L 2.6875 47.703125 
L 2.6875 54.6875 
L 9.28125 54.6875 
L 9.28125 70.21875 
z
" id="DejaVuSans-116"/>
       <path d="M 8.5 21.578125 
L 8.5 54.6875 
L 17.484375 54.6875 
L 17.484375 21.921875 
Q 17.484375 14.15625 20.5 10.265625 
Q 23.53125 6.390625 29.59375 6.390625 
Q 36.859375 6.390625 41.078125 11.03125 
Q 45.3125 15.671875 45.3125 23.6875 
L 45.3125 54.6875 
L 54.296875 54.6875 
L 54.296875 0 
L 45.3125 0 
L 45.3125 8.40625 
Q 42.046875 3.421875 37.71875 1 
Q 33.40625 -1.421875 27.6875 -1.421875 
Q 18.265625 -1.421875 13.375 4.4375 
Q 8.5 10.296875 8.5 21.578125 
z
M 31.109375 56 
z
" id="DejaVuSans-117"/>
       <path d="M 45.40625 46.390625 
L 45.40625 75.984375 
L 54.390625 75.984375 
L 54.390625 0 
L 45.40625 0 
L 45.40625 8.203125 
Q 42.578125 3.328125 38.25 0.953125 
Q 33.9375 -1.421875 27.875 -1.421875 
Q 17.96875 -1.421875 11.734375 6.484375 
Q 5.515625 14.40625 5.515625 27.296875 
Q 5.515625 40.1875 11.734375 48.09375 
Q 17.96875 56 27.875 56 
Q 33.9375 56 38.25 53.625 
Q 42.578125 51.265625 45.40625 46.390625 
z
M 14.796875 27.296875 
Q 14.796875 17.390625 18.875 11.75 
Q 22.953125 6.109375 30.078125 6.109375 
Q 37.203125 6.109375 41.296875 11.75 
Q 45.40625 17.390625 45.40625 27.296875 
Q 45.40625 37.203125 41.296875 42.84375 
Q 37.203125 48.484375 30.078125 48.484375 
Q 22.953125 48.484375 18.875 42.84375 
Q 14.796875 37.203125 14.796875 27.296875 
z
" id="DejaVuSans-100"/>
      </defs>
      <use xlink:href="#DejaVuSans-80"/>
      <use x="58.052734" xlink:href="#DejaVuSans-105"/>
      <use x="85.835938" xlink:href="#DejaVuSans-120"/>
      <use x="141.890625" xlink:href="#DejaVuSans-101"/>
      <use x="203.414062" xlink:href="#DejaVuSans-108"/>
      <use x="231.197266" xlink:href="#DejaVuSans-32"/>
      <use x="262.984375" xlink:href="#DejaVuSans-77"/>
      <use x="349.263672" xlink:href="#DejaVuSans-97"/>
      <use x="410.542969" xlink:href="#DejaVuSans-103"/>
      <use x="474.019531" xlink:href="#DejaVuSans-110"/>
      <use x="537.398438" xlink:href="#DejaVuSans-105"/>
      <use x="565.181641" xlink:href="#DejaVuSans-116"/>
      <use x="604.390625" xlink:href="#DejaVuSans-117"/>
      <use x="667.769531" xlink:href="#DejaVuSans-100"/>
      <use x="731.246094" xlink:href="#DejaVuSans-101"/>
     </g>
    </g>
   </g>
   <g id="matplotlib.axis_2">
    <g id="ytick_1">
     <g id="line2d_6">
      <defs>
       <path d="M 0 0 
L -3.5 0 
" id="mbe82d77509" style="stroke:#000000;stroke-width:0.8;"/>
      </defs>
      <g>
       <use style="stroke:#000000;stroke-width:0.8;" x="45" xlink:href="#mbe82d77509" y="302.645455"/>
      </g>
     </g>
     <g id="text_7">
      <!-- 0.00 -->
      <g transform="translate(2.375 308.724205)scale(0.16 -0.16)">
       <defs>
        <path d="M 10.6875 12.40625 
L 21 12.40625 
L 21 0 
L 10.6875 0 
z
" id="DejaVuSans-46"/>
       </defs>
       <use xlink:href="#DejaVuSans-48"/>
       <use x="63.623047" xlink:href="#DejaVuSans-46"/>
       <use x="95.410156" xlink:href="#DejaVuSans-48"/>
       <use x="159.033203" xlink:href="#DejaVuSans-48"/>
      </g>
     </g>
    </g>
    <g id="ytick_2">
     <g id="line2d_7">
      <g>
       <use style="stroke:#000000;stroke-width:0.8;" x="45" xlink:href="#mbe82d77509" y="250.909502"/>
      </g>
     </g>
     <g id="text_8">
      <!-- 0.05 -->
      <g transform="translate(2.375 256.988252)scale(0.16 -0.16)">
       <defs>
        <path d="M 10.796875 72.90625 
L 49.515625 72.90625 
L 49.515625 64.59375 
L 19.828125 64.59375 
L 19.828125 46.734375 
Q 21.96875 47.46875 24.109375 47.828125 
Q 26.265625 48.1875 28.421875 48.1875 
Q 40.625 48.1875 47.75 41.5 
Q 54.890625 34.8125 54.890625 23.390625 
Q 54.890625 11.625 47.5625 5.09375 
Q 40.234375 -1.421875 26.90625 -1.421875 
Q 22.3125 -1.421875 17.546875 -0.640625 
Q 12.796875 0.140625 7.71875 1.703125 
L 7.71875 11.625 
Q 12.109375 9.234375 16.796875 8.0625 
Q 21.484375 6.890625 26.703125 6.890625 
Q 35.15625 6.890625 40.078125 11.328125 
Q 45.015625 15.765625 45.015625 23.390625 
Q 45.015625 31 40.078125 35.4375 
Q 35.15625 39.890625 26.703125 39.890625 
Q 22.75 39.890625 18.8125 39.015625 
Q 14.890625 38.140625 10.796875 36.28125 
z
" id="DejaVuSans-53"/>
       </defs>
       <use xlink:href="#DejaVuSans-48"/>
       <use x="63.623047" xlink:href="#DejaVuSans-46"/>
       <use x="95.410156" xlink:href="#DejaVuSans-48"/>
       <use x="159.033203" xlink:href="#DejaVuSans-53"/>
      </g>
     </g>
    </g>
    <g id="ytick_3">
     <g id="line2d_8">
      <g>
       <use style="stroke:#000000;stroke-width:0.8;" x="45" xlink:href="#mbe82d77509" y="199.17355"/>
      </g>
     </g>
     <g id="text_9">
      <!-- 0.10 -->
      <g transform="translate(2.375 205.2523)scale(0.16 -0.16)">
       <use xlink:href="#DejaVuSans-48"/>
       <use x="63.623047" xlink:href="#DejaVuSans-46"/>
       <use x="95.410156" xlink:href="#DejaVuSans-49"/>
       <use x="159.033203" xlink:href="#DejaVuSans-48"/>
      </g>
     </g>
    </g>
    <g id="ytick_4">
     <g id="line2d_9">
      <g>
       <use style="stroke:#000000;stroke-width:0.8;" x="45" xlink:href="#mbe82d77509" y="147.437597"/>
      </g>
     </g>
     <g id="text_10">
      <!-- 0.15 -->
      <g transform="translate(2.375 153.516347)scale(0.16 -0.16)">
       <use xlink:href="#DejaVuSans-48"/>
       <use x="63.623047" xlink:href="#DejaVuSans-46"/>
       <use x="95.410156" xlink:href="#DejaVuSans-49"/>
       <use x="159.033203" xlink:href="#DejaVuSans-53"/>
      </g>
     </g>
    </g>
    <g id="ytick_5">
     <g id="line2d_10">
      <g>
       <use style="stroke:#000000;stroke-width:0.8;" x="45" xlink:href="#mbe82d77509" y="95.701645"/>
      </g>
     </g>
     <g id="text_11">
      <!-- 0.20 -->
      <g transform="translate(2.375 101.780395)scale(0.16 -0.16)">
       <use xlink:href="#DejaVuSans-48"/>
       <use x="63.623047" xlink:href="#DejaVuSans-46"/>
       <use x="95.410156" xlink:href="#DejaVuSans-50"/>
       <use x="159.033203" xlink:href="#DejaVuSans-48"/>
      </g>
     </g>
    </g>
    <g id="ytick_6">
     <g id="line2d_11">
      <g>
       <use style="stroke:#000000;stroke-width:0.8;" x="45" xlink:href="#mbe82d77509" y="43.965692"/>
      </g>
     </g>
     <g id="text_12">
      <!-- 0.25 -->
      <g transform="translate(2.375 50.044442)scale(0.16 -0.16)">
       <use xlink:href="#DejaVuSans-48"/>
       <use x="63.623047" xlink:href="#DejaVuSans-46"/>
       <use x="95.410156" xlink:href="#DejaVuSans-50"/>
       <use x="159.033203" xlink:href="#DejaVuSans-53"/>
      </g>
     </g>
    </g>
    <g id="text_13">
     <!-- Percentage of Pixels  -->
     <g transform="translate(-22.869 262.09875)rotate(-90)scale(0.16 -0.16)">
      <defs>
       <path d="M 41.109375 46.296875 
Q 39.59375 47.171875 37.8125 47.578125 
Q 36.03125 48 33.890625 48 
Q 26.265625 48 22.1875 43.046875 
Q 18.109375 38.09375 18.109375 28.8125 
L 18.109375 0 
L 9.078125 0 
L 9.078125 54.6875 
L 18.109375 54.6875 
L 18.109375 46.1875 
Q 20.953125 51.171875 25.484375 53.578125 
Q 30.03125 56 36.53125 56 
Q 37.453125 56 38.578125 55.875 
Q 39.703125 55.765625 41.0625 55.515625 
z
" id="DejaVuSans-114"/>
       <path d="M 48.78125 52.59375 
L 48.78125 44.1875 
Q 44.96875 46.296875 41.140625 47.34375 
Q 37.3125 48.390625 33.40625 48.390625 
Q 24.65625 48.390625 19.8125 42.84375 
Q 14.984375 37.3125 14.984375 27.296875 
Q 14.984375 17.28125 19.8125 11.734375 
Q 24.65625 6.203125 33.40625 6.203125 
Q 37.3125 6.203125 41.140625 7.25 
Q 44.96875 8.296875 48.78125 10.40625 
L 48.78125 2.09375 
Q 45.015625 0.34375 40.984375 -0.53125 
Q 36.96875 -1.421875 32.421875 -1.421875 
Q 20.0625 -1.421875 12.78125 6.34375 
Q 5.515625 14.109375 5.515625 27.296875 
Q 5.515625 40.671875 12.859375 48.328125 
Q 20.21875 56 33.015625 56 
Q 37.15625 56 41.109375 55.140625 
Q 45.0625 54.296875 48.78125 52.59375 
z
" id="DejaVuSans-99"/>
       <path d="M 30.609375 48.390625 
Q 23.390625 48.390625 19.1875 42.75 
Q 14.984375 37.109375 14.984375 27.296875 
Q 14.984375 17.484375 19.15625 11.84375 
Q 23.34375 6.203125 30.609375 6.203125 
Q 37.796875 6.203125 41.984375 11.859375 
Q 46.1875 17.53125 46.1875 27.296875 
Q 46.1875 37.015625 41.984375 42.703125 
Q 37.796875 48.390625 30.609375 48.390625 
z
M 30.609375 56 
Q 42.328125 56 49.015625 48.375 
Q 55.71875 40.765625 55.71875 27.296875 
Q 55.71875 13.875 49.015625 6.21875 
Q 42.328125 -1.421875 30.609375 -1.421875 
Q 18.84375 -1.421875 12.171875 6.21875 
Q 5.515625 13.875 5.515625 27.296875 
Q 5.515625 40.765625 12.171875 48.375 
Q 18.84375 56 30.609375 56 
z
" id="DejaVuSans-111"/>
       <path d="M 37.109375 75.984375 
L 37.109375 68.5 
L 28.515625 68.5 
Q 23.6875 68.5 21.796875 66.546875 
Q 19.921875 64.59375 19.921875 59.515625 
L 19.921875 54.6875 
L 34.71875 54.6875 
L 34.71875 47.703125 
L 19.921875 47.703125 
L 19.921875 0 
L 10.890625 0 
L 10.890625 47.703125 
L 2.296875 47.703125 
L 2.296875 54.6875 
L 10.890625 54.6875 
L 10.890625 58.5 
Q 10.890625 67.625 15.140625 71.796875 
Q 19.390625 75.984375 28.609375 75.984375 
z
" id="DejaVuSans-102"/>
       <path d="M 44.28125 53.078125 
L 44.28125 44.578125 
Q 40.484375 46.53125 36.375 47.5 
Q 32.28125 48.484375 27.875 48.484375 
Q 21.1875 48.484375 17.84375 46.4375 
Q 14.5 44.390625 14.5 40.28125 
Q 14.5 37.15625 16.890625 35.375 
Q 19.28125 33.59375 26.515625 31.984375 
L 29.59375 31.296875 
Q 39.15625 29.25 43.1875 25.515625 
Q 47.21875 21.78125 47.21875 15.09375 
Q 47.21875 7.46875 41.1875 3.015625 
Q 35.15625 -1.421875 24.609375 -1.421875 
Q 20.21875 -1.421875 15.453125 -0.5625 
Q 10.6875 0.296875 5.421875 2 
L 5.421875 11.28125 
Q 10.40625 8.6875 15.234375 7.390625 
Q 20.0625 6.109375 24.8125 6.109375 
Q 31.15625 6.109375 34.5625 8.28125 
Q 37.984375 10.453125 37.984375 14.40625 
Q 37.984375 18.0625 35.515625 20.015625 
Q 33.0625 21.96875 24.703125 23.78125 
L 21.578125 24.515625 
Q 13.234375 26.265625 9.515625 29.90625 
Q 5.8125 33.546875 5.8125 39.890625 
Q 5.8125 47.609375 11.28125 51.796875 
Q 16.75 56 26.8125 56 
Q 31.78125 56 36.171875 55.265625 
Q 40.578125 54.546875 44.28125 53.078125 
z
" id="DejaVuSans-115"/>
      </defs>
      <use xlink:href="#DejaVuSans-80"/>
      <use x="56.677734" xlink:href="#DejaVuSans-101"/>
      <use x="118.201172" xlink:href="#DejaVuSans-114"/>
      <use x="157.064453" xlink:href="#DejaVuSans-99"/>
      <use x="212.044922" xlink:href="#DejaVuSans-101"/>
      <use x="273.568359" xlink:href="#DejaVuSans-110"/>
      <use x="336.947266" xlink:href="#DejaVuSans-116"/>
      <use x="376.15625" xlink:href="#DejaVuSans-97"/>
      <use x="437.435547" xlink:href="#DejaVuSans-103"/>
      <use x="500.912109" xlink:href="#DejaVuSans-101"/>
      <use x="562.435547" xlink:href="#DejaVuSans-32"/>
      <use x="594.222656" xlink:href="#DejaVuSans-111"/>
      <use x="655.404297" xlink:href="#DejaVuSans-102"/>
      <use x="690.609375" xlink:href="#DejaVuSans-32"/>
      <use x="722.396484" xlink:href="#DejaVuSans-80"/>
      <use x="780.449219" xlink:href="#DejaVuSans-105"/>
      <use x="808.232422" xlink:href="#DejaVuSans-120"/>
      <use x="864.287109" xlink:href="#DejaVuSans-101"/>
      <use x="925.810547" xlink:href="#DejaVuSans-108"/>
      <use x="953.59375" xlink:href="#DejaVuSans-115"/>
      <use x="1005.693359" xlink:href="#DejaVuSans-32"/>
     </g>
     <!-- (Sample of 10000) -->
     <g transform="translate(-4.9525 253.58625)rotate(-90)scale(0.16 -0.16)">
      <defs>
       <path d="M 31 75.875 
Q 24.46875 64.65625 21.28125 53.65625 
Q 18.109375 42.671875 18.109375 31.390625 
Q 18.109375 20.125 21.3125 9.0625 
Q 24.515625 -2 31 -13.1875 
L 23.1875 -13.1875 
Q 15.875 -1.703125 12.234375 9.375 
Q 8.59375 20.453125 8.59375 31.390625 
Q 8.59375 42.28125 12.203125 53.3125 
Q 15.828125 64.359375 23.1875 75.875 
z
" id="DejaVuSans-40"/>
       <path d="M 53.515625 70.515625 
L 53.515625 60.890625 
Q 47.90625 63.578125 42.921875 64.890625 
Q 37.9375 66.21875 33.296875 66.21875 
Q 25.25 66.21875 20.875 63.09375 
Q 16.5 59.96875 16.5 54.203125 
Q 16.5 49.359375 19.40625 46.890625 
Q 22.3125 44.4375 30.421875 42.921875 
L 36.375 41.703125 
Q 47.40625 39.59375 52.65625 34.296875 
Q 57.90625 29 57.90625 20.125 
Q 57.90625 9.515625 50.796875 4.046875 
Q 43.703125 -1.421875 29.984375 -1.421875 
Q 24.8125 -1.421875 18.96875 -0.25 
Q 13.140625 0.921875 6.890625 3.21875 
L 6.890625 13.375 
Q 12.890625 10.015625 18.65625 8.296875 
Q 24.421875 6.59375 29.984375 6.59375 
Q 38.421875 6.59375 43.015625 9.90625 
Q 47.609375 13.234375 47.609375 19.390625 
Q 47.609375 24.75 44.3125 27.78125 
Q 41.015625 30.8125 33.5 32.328125 
L 27.484375 33.5 
Q 16.453125 35.6875 11.515625 40.375 
Q 6.59375 45.0625 6.59375 53.421875 
Q 6.59375 63.09375 13.40625 68.65625 
Q 20.21875 74.21875 32.171875 74.21875 
Q 37.3125 74.21875 42.625 73.28125 
Q 47.953125 72.359375 53.515625 70.515625 
z
" id="DejaVuSans-83"/>
       <path d="M 52 44.1875 
Q 55.375 50.25 60.0625 53.125 
Q 64.75 56 71.09375 56 
Q 79.640625 56 84.28125 50.015625 
Q 88.921875 44.046875 88.921875 33.015625 
L 88.921875 0 
L 79.890625 0 
L 79.890625 32.71875 
Q 79.890625 40.578125 77.09375 44.375 
Q 74.3125 48.1875 68.609375 48.1875 
Q 61.625 48.1875 57.5625 43.546875 
Q 53.515625 38.921875 53.515625 30.90625 
L 53.515625 0 
L 44.484375 0 
L 44.484375 32.71875 
Q 44.484375 40.625 41.703125 44.40625 
Q 38.921875 48.1875 33.109375 48.1875 
Q 26.21875 48.1875 22.15625 43.53125 
Q 18.109375 38.875 18.109375 30.90625 
L 18.109375 0 
L 9.078125 0 
L 9.078125 54.6875 
L 18.109375 54.6875 
L 18.109375 46.1875 
Q 21.1875 51.21875 25.484375 53.609375 
Q 29.78125 56 35.6875 56 
Q 41.65625 56 45.828125 52.96875 
Q 50 49.953125 52 44.1875 
z
" id="DejaVuSans-109"/>
       <path d="M 18.109375 8.203125 
L 18.109375 -20.796875 
L 9.078125 -20.796875 
L 9.078125 54.6875 
L 18.109375 54.6875 
L 18.109375 46.390625 
Q 20.953125 51.265625 25.265625 53.625 
Q 29.59375 56 35.59375 56 
Q 45.5625 56 51.78125 48.09375 
Q 58.015625 40.1875 58.015625 27.296875 
Q 58.015625 14.40625 51.78125 6.484375 
Q 45.5625 -1.421875 35.59375 -1.421875 
Q 29.59375 -1.421875 25.265625 0.953125 
Q 20.953125 3.328125 18.109375 8.203125 
z
M 48.6875 27.296875 
Q 48.6875 37.203125 44.609375 42.84375 
Q 40.53125 48.484375 33.40625 48.484375 
Q 26.265625 48.484375 22.1875 42.84375 
Q 18.109375 37.203125 18.109375 27.296875 
Q 18.109375 17.390625 22.1875 11.75 
Q 26.265625 6.109375 33.40625 6.109375 
Q 40.53125 6.109375 44.609375 11.75 
Q 48.6875 17.390625 48.6875 27.296875 
z
" id="DejaVuSans-112"/>
       <path d="M 8.015625 75.875 
L 15.828125 75.875 
Q 23.140625 64.359375 26.78125 53.3125 
Q 30.421875 42.28125 30.421875 31.390625 
Q 30.421875 20.453125 26.78125 9.375 
Q 23.140625 -1.703125 15.828125 -13.1875 
L 8.015625 -13.1875 
Q 14.5 -2 17.703125 9.0625 
Q 20.90625 20.125 20.90625 31.390625 
Q 20.90625 42.671875 17.703125 53.65625 
Q 14.5 64.65625 8.015625 75.875 
z
" id="DejaVuSans-41"/>
      </defs>
      <use xlink:href="#DejaVuSans-40"/>
      <use x="39.013672" xlink:href="#DejaVuSans-83"/>
      <use x="102.490234" xlink:href="#DejaVuSans-97"/>
      <use x="163.769531" xlink:href="#DejaVuSans-109"/>
      <use x="261.181641" xlink:href="#DejaVuSans-112"/>
      <use x="324.658203" xlink:href="#DejaVuSans-108"/>
      <use x="352.441406" xlink:href="#DejaVuSans-101"/>
      <use x="413.964844" xlink:href="#DejaVuSans-32"/>
      <use x="445.751953" xlink:href="#DejaVuSans-111"/>
      <use x="506.933594" xlink:href="#DejaVuSans-102"/>
      <use x="542.138672" xlink:href="#DejaVuSans-32"/>
      <use x="573.925781" xlink:href="#DejaVuSans-49"/>
      <use x="637.548828" xlink:href="#DejaVuSans-48"/>
      <use x="701.171875" xlink:href="#DejaVuSans-48"/>
      <use x="764.794922" xlink:href="#DejaVuSans-48"/>
      <use x="828.417969" xlink:href="#DejaVuSans-48"/>
      <use x="892.041016" xlink:href="#DejaVuSans-41"/>
     </g>
    </g>
   </g>
   <g id="line2d_12">
    <path clip-path="url(#pe07fc6a92a)" d="M 46.395 289.91841 
L 49.185 296.126725 
L 51.975 296.023253 
L 54.765 296.126725 
L 57.555 297.161444 
L 60.345 293.746871 
L 63.135 295.092005 
L 65.925 292.60868 
L 68.715 290.746185 
L 71.505 290.021882 
L 74.295 290.43577 
L 77.085 293.022567 
L 79.875 291.987848 
L 82.665 291.884376 
L 85.455 291.884376 
L 88.245 292.505208 
L 91.035 293.850343 
L 93.825 291.987848 
L 96.615 292.194792 
L 99.405 291.780905 
L 102.195 292.401736 
L 104.985 292.60868 
L 107.775 289.91841 
L 110.565 292.505208 
L 113.355 291.780905 
L 116.145 292.298264 
L 118.935 292.919095 
L 121.725 292.919095 
L 124.515 290.849657 
L 127.305 290.021882 
L 130.095 291.884376 
L 132.885 289.504523 
L 135.675 289.194107 
L 138.465 289.297579 
L 141.255 290.746185 
L 144.045 289.504523 
L 146.835 289.401051 
L 149.625 289.194107 
L 152.415 289.607995 
L 155.205 287.848972 
L 157.995 286.607309 
L 160.785 288.159388 
L 163.575 286.607309 
L 166.365 289.504523 
L 169.155 288.26286 
L 171.945 285.986478 
L 174.735 288.055916 
L 177.525 286.296894 
L 180.315 288.26286 
L 183.105 285.055231 
L 185.895 286.08995 
L 188.685 285.262175 
L 191.475 286.08995 
L 194.265 287.124669 
L 197.055 287.124669 
L 199.845 283.192736 
L 202.635 284.848287 
L 205.425 285.469118 
L 208.215 285.469118 
L 211.005 284.744815 
L 213.795 287.848972 
L 216.585 286.400365 
L 219.375 286.917725 
L 222.165 287.331613 
L 224.955 288.883691 
L 227.745 289.504523 
L 230.535 290.953129 
L 233.325 291.056601 
L 236.115 290.746185 
L 238.905 291.884376 
L 241.695 292.194792 
L 244.485 293.643399 
L 247.275 293.953815 
L 250.065 293.332983 
L 252.855 294.988534 
L 255.645 295.505893 
L 258.435 296.644084 
L 261.225 295.816309 
L 264.015 297.368387 
L 266.805 298.299635 
L 269.595 297.989219 
L 272.385 298.092691 
L 275.175 299.12741 
L 277.965 299.023938 
L 280.755 300.058657 
L 283.545 300.162129 
L 286.335 300.989904 
L 289.125 300.679488 
L 291.915 300.78296 
L 294.705 300.78296 
L 297.495 300.058657 
L 300.285 300.679488 
L 303.075 299.437825 
L 305.865 299.541297 
L 308.655 298.920466 
L 311.445 298.092691 
L 314.235 296.540612 
L 317.025 297.989219 
L 319.815 298.403106 
L 322.605 297.471859 
" style="fill:none;stroke:#1f77b4;stroke-linecap:square;stroke-width:1.5;"/>
   </g>
   <g id="line2d_13">
    <path clip-path="url(#pe07fc6a92a)" d="M 46.395 232.594975 
L 49.185 254.634491 
L 51.975 269.637917 
L 54.765 275.018456 
L 57.555 278.536501 
L 60.345 280.398995 
L 63.135 282.882321 
L 65.925 282.675377 
L 68.715 286.08995 
L 71.505 283.606624 
L 74.295 287.331613 
L 77.085 281.951074 
L 79.875 286.400365 
L 82.665 285.469118 
L 85.455 284.434399 
L 88.245 285.883006 
L 91.035 283.503152 
L 93.825 282.468433 
L 96.615 282.468433 
L 99.405 278.639973 
L 102.195 281.433714 
L 104.985 284.744815 
L 107.775 281.951074 
L 110.565 283.710096 
L 113.355 284.848287 
L 116.145 284.641343 
L 118.935 287.331613 
L 121.725 285.676062 
L 124.515 287.538556 
L 127.305 287.228141 
L 130.095 287.848972 
L 132.885 288.159388 
L 135.675 288.366332 
L 138.465 289.090635 
L 141.255 287.642028 
L 144.045 287.124669 
L 146.835 290.021882 
L 149.625 290.849657 
L 152.415 290.539242 
L 155.205 290.332298 
L 157.995 291.056601 
L 160.785 289.504523 
L 163.575 291.677433 
L 166.365 292.298264 
L 169.155 292.401736 
L 171.945 293.126039 
L 174.735 293.953815 
L 177.525 295.298949 
L 180.315 297.885747 
L 183.105 294.885062 
L 185.895 295.816309 
L 188.685 295.609365 
L 191.475 297.161444 
L 194.265 297.885747 
L 197.055 296.851028 
L 199.845 298.713522 
L 202.635 298.092691 
L 205.425 298.61005 
L 208.215 299.023938 
L 211.005 300.058657 
L 213.795 299.955185 
L 216.585 300.265601 
L 219.375 300.886432 
L 222.165 299.437825 
L 224.955 299.748241 
L 227.745 300.679488 
L 230.535 299.644769 
L 233.325 300.369073 
L 236.115 300.576016 
L 238.905 301.093376 
L 241.695 300.989904 
L 244.485 301.817679 
L 247.275 301.196848 
L 250.065 300.886432 
L 252.855 301.507264 
L 255.645 301.403792 
L 258.435 300.886432 
L 261.225 301.714207 
L 264.015 300.472545 
L 266.805 301.30032 
L 269.595 300.679488 
L 272.385 300.78296 
L 275.175 301.403792 
L 277.965 301.196848 
L 280.755 300.989904 
L 283.545 301.507264 
L 286.335 300.78296 
L 289.125 301.714207 
L 291.915 301.196848 
L 294.705 302.024623 
L 297.495 300.886432 
L 300.285 301.196848 
L 303.075 300.265601 
L 305.865 299.748241 
L 308.655 298.816994 
L 311.445 298.920466 
L 314.235 296.747556 
L 317.025 297.057972 
L 319.815 297.471859 
L 322.605 297.989219 
" style="fill:none;stroke:#ff7f0e;stroke-linecap:square;stroke-width:1.5;"/>
   </g>
   <g id="line2d_14">
    <path clip-path="url(#pe07fc6a92a)" d="M 46.395 153.232024 
L 49.185 246.149794 
L 51.975 266.430288 
L 54.765 278.433029 
L 57.555 273.362905 
L 60.345 276.777478 
L 63.135 274.087209 
L 65.925 272.224714 
L 68.715 274.087209 
L 71.505 276.984422 
L 74.295 276.156647 
L 77.085 275.018456 
L 79.875 274.087209 
L 82.665 277.605254 
L 85.455 276.053175 
L 88.245 276.467063 
L 91.035 277.39831 
L 93.825 279.364276 
L 96.615 279.05386 
L 99.405 282.261489 
L 102.195 279.57122 
L 104.985 282.054545 
L 107.775 282.364961 
L 110.565 288.26286 
L 113.355 288.573275 
L 116.145 289.91841 
L 118.935 288.883691 
L 121.725 291.160073 
L 124.515 290.43577 
L 127.305 291.677433 
L 130.095 292.298264 
L 132.885 292.194792 
L 135.675 294.678118 
L 138.465 294.78159 
L 141.255 294.160758 
L 144.045 295.402421 
L 146.835 294.78159 
L 149.625 298.092691 
L 152.415 296.540612 
L 155.205 296.851028 
L 157.995 298.816994 
L 160.785 297.989219 
L 163.575 299.437825 
L 166.365 298.920466 
L 169.155 300.265601 
L 171.945 299.851713 
L 174.735 299.851713 
L 177.525 299.12741 
L 180.315 299.541297 
L 183.105 299.541297 
L 185.895 300.265601 
L 188.685 299.12741 
L 191.475 301.403792 
L 194.265 300.576016 
L 197.055 300.369073 
L 199.845 300.162129 
L 202.635 300.472545 
L 205.425 300.369073 
L 208.215 300.989904 
L 211.005 301.196848 
L 213.795 301.403792 
L 216.585 301.610735 
L 219.375 301.196848 
L 222.165 301.093376 
L 224.955 301.507264 
L 227.745 301.403792 
L 230.535 301.610735 
L 233.325 301.714207 
L 236.115 301.610735 
L 238.905 301.507264 
L 241.695 301.921151 
L 244.485 301.403792 
L 247.275 301.196848 
L 250.065 301.403792 
L 252.855 301.610735 
L 255.645 301.714207 
L 258.435 301.714207 
L 261.225 301.403792 
L 264.015 301.403792 
L 266.805 301.714207 
L 269.595 301.921151 
L 272.385 301.817679 
L 275.175 301.403792 
L 277.965 301.714207 
L 280.755 301.921151 
L 283.545 301.507264 
L 286.335 301.507264 
L 289.125 301.817679 
L 291.915 301.921151 
L 294.705 302.128095 
L 297.495 302.231567 
L 300.285 301.403792 
L 303.075 300.989904 
L 305.865 301.093376 
L 308.655 300.472545 
L 311.445 299.437825 
L 314.235 297.678803 
L 317.025 296.747556 
L 319.815 298.61005 
L 322.605 297.161444 
" style="fill:none;stroke:#2ca02c;stroke-linecap:square;stroke-width:1.5;"/>
   </g>
   <g id="line2d_15">
    <path clip-path="url(#pe07fc6a92a)" d="M 46.395 276.984422 
L 49.185 287.642028 
L 51.975 289.711466 
L 54.765 291.884376 
L 57.555 288.883691 
L 60.345 288.055916 
L 63.135 287.124669 
L 65.925 287.538556 
L 68.715 288.26286 
L 71.505 288.780219 
L 74.295 290.125354 
L 77.085 287.7455 
L 79.875 291.677433 
L 82.665 291.780905 
L 85.455 289.711466 
L 88.245 287.331613 
L 91.035 290.539242 
L 93.825 289.91841 
L 96.615 289.194107 
L 99.405 287.021197 
L 102.195 287.538556 
L 104.985 284.744815 
L 107.775 286.607309 
L 110.565 283.089265 
L 113.355 280.812883 
L 116.145 279.985107 
L 118.935 279.674692 
L 121.725 279.881635 
L 124.515 276.260119 
L 127.305 273.983737 
L 130.095 274.190681 
L 132.885 275.639287 
L 135.675 275.535815 
L 138.465 278.950388 
L 141.255 281.640658 
L 144.045 281.123298 
L 146.835 279.260804 
L 149.625 278.226085 
L 152.415 279.778164 
L 155.205 279.05386 
L 157.995 278.743444 
L 160.785 281.537186 
L 163.575 283.91704 
L 166.365 282.261489 
L 169.155 283.503152 
L 171.945 286.08995 
L 174.735 286.607309 
L 177.525 287.435085 
L 180.315 289.711466 
L 183.105 288.987163 
L 185.895 291.677433 
L 188.685 293.746871 
L 191.475 292.194792 
L 194.265 294.471174 
L 197.055 294.574646 
L 199.845 295.712837 
L 202.635 297.161444 
L 205.425 296.9545 
L 208.215 297.471859 
L 211.005 298.092691 
L 213.795 298.713522 
L 216.585 298.713522 
L 219.375 298.092691 
L 222.165 297.678803 
L 224.955 296.9545 
L 227.745 298.816994 
L 230.535 298.61005 
L 233.325 298.299635 
L 236.115 299.12741 
L 238.905 301.30032 
L 241.695 301.610735 
L 244.485 301.714207 
L 247.275 302.541983 
L 250.065 302.231567 
L 252.855 302.645455 
L 255.645 302.645455 
L 258.435 302.541983 
L 261.225 302.645455 
L 264.015 302.645455 
L 266.805 302.645455 
L 269.595 302.645455 
L 272.385 302.645455 
L 275.175 302.645455 
L 277.965 302.645455 
L 280.755 302.645455 
L 283.545 302.645455 
L 286.335 302.645455 
L 289.125 302.645455 
L 291.915 302.645455 
L 294.705 302.645455 
L 297.495 302.645455 
L 300.285 302.645455 
L 303.075 302.645455 
L 305.865 302.645455 
L 308.655 302.645455 
L 311.445 302.645455 
L 314.235 302.645455 
L 317.025 302.645455 
L 319.815 302.645455 
L 322.605 302.645455 
" style="fill:none;stroke:#d62728;stroke-linecap:square;stroke-width:1.5;"/>
   </g>
   <g id="line2d_16">
    <path clip-path="url(#pe07fc6a92a)" d="M 46.395 237.354683 
L 49.185 255.15185 
L 51.975 275.432344 
L 54.765 275.742759 
L 57.555 281.74413 
L 60.345 278.743444 
L 63.135 281.640658 
L 65.925 279.674692 
L 68.715 277.39831 
L 71.505 278.122613 
L 74.295 278.950388 
L 77.085 275.432344 
L 79.875 270.36222 
L 82.665 272.53513 
L 85.455 270.672636 
L 88.245 269.327501 
L 91.035 271.914299 
L 93.825 274.190681 
L 96.615 274.294153 
L 99.405 276.156647 
L 102.195 275.742759 
L 104.985 276.777478 
L 107.775 278.743444 
L 110.565 279.985107 
L 113.355 282.364961 
L 116.145 283.192736 
L 118.935 284.537871 
L 121.725 287.952444 
L 124.515 286.296894 
L 127.305 286.503837 
L 130.095 288.883691 
L 132.885 288.159388 
L 135.675 288.366332 
L 138.465 289.711466 
L 141.255 290.746185 
L 144.045 290.228826 
L 146.835 292.194792 
L 149.625 292.505208 
L 152.415 293.229511 
L 155.205 293.126039 
L 157.995 295.298949 
L 160.785 296.230196 
L 163.575 295.919781 
L 166.365 296.126725 
L 169.155 295.092005 
L 171.945 296.023253 
L 174.735 296.540612 
L 177.525 297.471859 
L 180.315 297.678803 
L 183.105 299.023938 
L 185.895 299.644769 
L 188.685 299.437825 
L 191.475 299.541297 
L 194.265 299.851713 
L 197.055 299.230882 
L 199.845 300.886432 
L 202.635 300.576016 
L 205.425 300.162129 
L 208.215 300.989904 
L 211.005 299.851713 
L 213.795 299.541297 
L 216.585 300.162129 
L 219.375 300.576016 
L 222.165 299.851713 
L 224.955 299.748241 
L 227.745 300.058657 
L 230.535 299.334354 
L 233.325 300.058657 
L 236.115 301.196848 
L 238.905 301.714207 
L 241.695 301.817679 
L 244.485 302.231567 
L 247.275 302.438511 
L 250.065 302.645455 
L 252.855 302.645455 
L 255.645 302.645455 
L 258.435 302.645455 
L 261.225 302.645455 
L 264.015 302.645455 
L 266.805 302.645455 
L 269.595 302.645455 
L 272.385 302.645455 
L 275.175 302.645455 
L 277.965 302.645455 
L 280.755 302.645455 
L 283.545 302.645455 
L 286.335 302.645455 
L 289.125 302.645455 
L 291.915 302.645455 
L 294.705 302.645455 
L 297.495 302.645455 
L 300.285 302.645455 
L 303.075 302.645455 
L 305.865 302.645455 
L 308.655 302.645455 
L 311.445 302.645455 
L 314.235 302.645455 
L 317.025 302.645455 
L 319.815 302.645455 
L 322.605 302.645455 
" style="fill:none;stroke:#9467bd;stroke-linecap:square;stroke-width:1.5;"/>
   </g>
   <g id="line2d_17">
    <path clip-path="url(#pe07fc6a92a)" d="M 46.395 55.554545 
L 49.185 218.522796 
L 51.975 256.807401 
L 54.765 266.0164 
L 57.555 262.601827 
L 60.345 262.808771 
L 63.135 265.499041 
L 65.925 264.36085 
L 68.715 270.465692 
L 71.505 271.707355 
L 74.295 272.121243 
L 77.085 273.362905 
L 79.875 276.467063 
L 82.665 280.088579 
L 85.455 280.812883 
L 88.245 280.605939 
L 91.035 280.295523 
L 93.825 286.814253 
L 96.615 289.090635 
L 99.405 286.296894 
L 102.195 287.538556 
L 104.985 291.056601 
L 107.775 292.194792 
L 110.565 291.367017 
L 113.355 292.60868 
L 116.145 294.057286 
L 118.935 296.43714 
L 121.725 294.78159 
L 124.515 295.919781 
L 127.305 296.43714 
L 130.095 298.506578 
L 132.885 298.920466 
L 135.675 299.334354 
L 138.465 299.955185 
L 141.255 300.472545 
L 144.045 300.78296 
L 146.835 299.851713 
L 149.625 300.162129 
L 152.415 300.576016 
L 155.205 300.162129 
L 157.995 301.610735 
L 160.785 300.679488 
L 163.575 300.576016 
L 166.365 299.748241 
L 169.155 302.128095 
L 171.945 300.679488 
L 174.735 300.472545 
L 177.525 301.093376 
L 180.315 301.403792 
L 183.105 301.610735 
L 185.895 302.024623 
L 188.685 301.196848 
L 191.475 300.989904 
L 194.265 301.507264 
L 197.055 301.403792 
L 199.845 301.610735 
L 202.635 301.507264 
L 205.425 301.30032 
L 208.215 301.403792 
L 211.005 300.679488 
L 213.795 301.507264 
L 216.585 299.644769 
L 219.375 299.334354 
L 222.165 298.920466 
L 224.955 298.506578 
L 227.745 298.920466 
L 230.535 298.61005 
L 233.325 300.162129 
L 236.115 300.058657 
L 238.905 301.196848 
L 241.695 302.335039 
L 244.485 302.024623 
L 247.275 302.335039 
L 250.065 302.541983 
L 252.855 302.541983 
L 255.645 302.645455 
L 258.435 302.645455 
L 261.225 302.645455 
L 264.015 302.645455 
L 266.805 302.645455 
L 269.595 302.645455 
L 272.385 302.645455 
L 275.175 302.645455 
L 277.965 302.645455 
L 280.755 302.645455 
L 283.545 302.645455 
L 286.335 302.645455 
L 289.125 302.645455 
L 291.915 302.645455 
L 294.705 302.645455 
L 297.495 302.645455 
L 300.285 302.645455 
L 303.075 302.645455 
L 305.865 302.645455 
L 308.655 302.645455 
L 311.445 302.645455 
L 314.235 302.645455 
L 317.025 302.645455 
L 319.815 302.645455 
L 322.605 302.645455 
" style="fill:none;stroke:#8c564b;stroke-linecap:square;stroke-width:1.5;"/>
   </g>
   <g id="line2d_18">
    <path clip-path="url(#pe07fc6a92a)" d="M 46.395 278.122613 
L 49.185 277.191366 
L 51.975 275.846231 
L 54.765 274.604568 
L 57.555 269.017085 
L 60.345 270.776108 
L 63.135 272.845546 
L 65.925 270.983052 
L 68.715 272.224714 
L 71.505 271.603883 
L 74.295 272.224714 
L 77.085 265.188625 
L 79.875 260.221974 
L 82.665 253.4963 
L 85.455 250.909502 
L 88.245 250.392143 
L 91.035 254.841434 
L 93.825 251.737277 
L 96.615 253.599772 
L 99.405 257.738648 
L 102.195 262.498355 
L 104.985 263.946962 
L 107.775 267.361535 
L 110.565 274.190681 
L 113.355 275.742759 
L 116.145 280.502467 
L 118.935 286.400365 
L 121.725 288.469804 
L 124.515 290.849657 
L 127.305 292.298264 
L 130.095 293.539927 
L 132.885 293.539927 
L 135.675 296.333668 
L 138.465 297.368387 
L 141.255 298.713522 
L 144.045 300.162129 
L 146.835 300.369073 
L 149.625 301.610735 
L 152.415 301.610735 
L 155.205 302.231567 
L 157.995 302.541983 
L 160.785 302.541983 
L 163.575 302.645455 
L 166.365 302.645455 
L 169.155 302.645455 
L 171.945 302.645455 
L 174.735 302.645455 
L 177.525 302.645455 
L 180.315 302.645455 
L 183.105 302.645455 
L 185.895 302.645455 
L 188.685 302.645455 
L 191.475 302.645455 
L 194.265 302.645455 
L 197.055 302.645455 
L 199.845 302.645455 
L 202.635 302.645455 
L 205.425 302.645455 
L 208.215 302.645455 
L 211.005 302.645455 
L 213.795 302.645455 
L 216.585 302.645455 
L 219.375 302.645455 
L 222.165 302.645455 
L 224.955 302.645455 
L 227.745 302.645455 
L 230.535 302.645455 
L 233.325 302.645455 
L 236.115 302.645455 
L 238.905 302.645455 
L 241.695 302.645455 
L 244.485 302.645455 
L 247.275 302.645455 
L 250.065 302.645455 
L 252.855 302.645455 
L 255.645 302.645455 
L 258.435 302.645455 
L 261.225 302.645455 
L 264.015 302.645455 
L 266.805 302.645455 
L 269.595 302.645455 
L 272.385 302.645455 
L 275.175 302.645455 
L 277.965 302.645455 
L 280.755 302.645455 
L 283.545 302.645455 
L 286.335 302.645455 
L 289.125 302.645455 
L 291.915 302.645455 
L 294.705 302.645455 
L 297.495 302.645455 
L 300.285 302.645455 
L 303.075 302.645455 
L 305.865 302.645455 
L 308.655 302.645455 
L 311.445 302.645455 
L 314.235 302.645455 
L 317.025 302.645455 
L 319.815 302.645455 
L 322.605 302.645455 
" style="fill:none;stroke:#e377c2;stroke-linecap:square;stroke-width:1.5;"/>
   </g>
   <g id="line2d_19">
    <path clip-path="url(#pe07fc6a92a)" d="M 46.395 149.610507 
L 49.185 227.007492 
L 51.975 243.459525 
L 54.765 253.392828 
L 57.555 249.047008 
L 60.345 252.565053 
L 63.135 250.495614 
L 65.925 251.012974 
L 68.715 250.909502 
L 71.505 252.97894 
L 74.295 263.222659 
L 77.085 263.84349 
L 79.875 270.776108 
L 82.665 272.742074 
L 85.455 275.328872 
L 88.245 278.536501 
L 91.035 280.916354 
L 93.825 283.296208 
L 96.615 287.7455 
L 99.405 289.401051 
L 102.195 289.504523 
L 104.985 291.780905 
L 107.775 292.194792 
L 110.565 292.505208 
L 113.355 294.471174 
L 116.145 295.816309 
L 118.935 296.9545 
L 121.725 297.264915 
L 124.515 295.505893 
L 127.305 295.402421 
L 130.095 294.988534 
L 132.885 295.298949 
L 135.675 295.298949 
L 138.465 297.057972 
L 141.255 298.196163 
L 144.045 297.885747 
L 146.835 299.851713 
L 149.625 301.30032 
L 152.415 301.403792 
L 155.205 302.231567 
L 157.995 302.541983 
L 160.785 302.645455 
L 163.575 302.645455 
L 166.365 302.645455 
L 169.155 302.645455 
L 171.945 302.645455 
L 174.735 302.645455 
L 177.525 302.645455 
L 180.315 302.645455 
L 183.105 302.645455 
L 185.895 302.645455 
L 188.685 302.645455 
L 191.475 302.645455 
L 194.265 302.645455 
L 197.055 302.645455 
L 199.845 302.645455 
L 202.635 302.645455 
L 205.425 302.645455 
L 208.215 302.645455 
L 211.005 302.645455 
L 213.795 302.645455 
L 216.585 302.645455 
L 219.375 302.645455 
L 222.165 302.645455 
L 224.955 302.645455 
L 227.745 302.645455 
L 230.535 302.645455 
L 233.325 302.645455 
L 236.115 302.645455 
L 238.905 302.645455 
L 241.695 302.645455 
L 244.485 302.645455 
L 247.275 302.645455 
L 250.065 302.645455 
L 252.855 302.645455 
L 255.645 302.645455 
L 258.435 302.645455 
L 261.225 302.645455 
L 264.015 302.645455 
L 266.805 302.645455 
L 269.595 302.645455 
L 272.385 302.645455 
L 275.175 302.645455 
L 277.965 302.645455 
L 280.755 302.645455 
L 283.545 302.645455 
L 286.335 302.645455 
L 289.125 302.645455 
L 291.915 302.645455 
L 294.705 302.645455 
L 297.495 302.645455 
L 300.285 302.645455 
L 303.075 302.645455 
L 305.865 302.645455 
L 308.655 302.645455 
L 311.445 302.645455 
L 314.235 302.645455 
L 317.025 302.645455 
L 319.815 302.645455 
L 322.605 302.645455 
" style="fill:none;stroke:#7f7f7f;stroke-linecap:square;stroke-width:1.5;"/>
   </g>
   <g id="line2d_20">
    <path clip-path="url(#pe07fc6a92a)" d="M 46.395 75.524623 
L 49.185 204.554089 
L 51.975 218.626268 
L 54.765 225.869301 
L 57.555 227.835267 
L 60.345 243.149109 
L 63.135 249.047008 
L 65.925 252.771996 
L 68.715 263.119187 
L 71.505 269.120557 
L 74.295 269.948333 
L 77.085 276.984422 
L 79.875 280.812883 
L 82.665 285.158703 
L 85.455 285.365646 
L 88.245 290.125354 
L 91.035 290.332298 
L 93.825 294.678118 
L 96.615 294.057286 
L 99.405 294.574646 
L 102.195 296.851028 
L 104.985 297.368387 
L 107.775 296.747556 
L 110.565 298.196163 
L 113.355 298.506578 
L 116.145 299.230882 
L 118.935 299.748241 
L 121.725 299.748241 
L 124.515 299.851713 
L 127.305 297.471859 
L 130.095 298.403106 
L 132.885 296.43714 
L 135.675 297.575331 
L 138.465 299.334354 
L 141.255 298.920466 
L 144.045 300.162129 
L 146.835 300.78296 
L 149.625 300.576016 
L 152.415 301.507264 
L 155.205 302.645455 
L 157.995 302.335039 
L 160.785 302.541983 
L 163.575 302.645455 
L 166.365 302.541983 
L 169.155 302.645455 
L 171.945 302.541983 
L 174.735 302.645455 
L 177.525 302.645455 
L 180.315 302.645455 
L 183.105 302.645455 
L 185.895 302.645455 
L 188.685 302.645455 
L 191.475 302.645455 
L 194.265 302.645455 
L 197.055 302.645455 
L 199.845 302.645455 
L 202.635 302.645455 
L 205.425 302.645455 
L 208.215 302.645455 
L 211.005 302.645455 
L 213.795 302.645455 
L 216.585 302.645455 
L 219.375 302.645455 
L 222.165 302.645455 
L 224.955 302.645455 
L 227.745 302.645455 
L 230.535 302.645455 
L 233.325 302.645455 
L 236.115 302.645455 
L 238.905 302.645455 
L 241.695 302.645455 
L 244.485 302.645455 
L 247.275 302.645455 
L 250.065 302.645455 
L 252.855 302.645455 
L 255.645 302.645455 
L 258.435 302.645455 
L 261.225 302.645455 
L 264.015 302.645455 
L 266.805 302.645455 
L 269.595 302.645455 
L 272.385 302.645455 
L 275.175 302.645455 
L 277.965 302.645455 
L 280.755 302.645455 
L 283.545 302.645455 
L 286.335 302.645455 
L 289.125 302.645455 
L 291.915 302.645455 
L 294.705 302.645455 
L 297.495 302.645455 
L 300.285 302.645455 
L 303.075 302.645455 
L 305.865 302.645455 
L 308.655 302.645455 
L 311.445 302.645455 
L 314.235 302.645455 
L 317.025 302.645455 
L 319.815 302.645455 
L 322.605 302.645455 
" style="fill:none;stroke:#bcbd22;stroke-linecap:square;stroke-width:1.5;"/>
   </g>
   <g id="patch_3">
    <path d="M 45 315 
L 45 43.2 
" style="fill:none;stroke:#000000;stroke-linecap:square;stroke-linejoin:miter;stroke-width:0.8;"/>
   </g>
   <g id="patch_4">
    <path d="M 324 315 
L 324 43.2 
" style="fill:none;stroke:#000000;stroke-linecap:square;stroke-linejoin:miter;stroke-width:0.8;"/>
   </g>
   <g id="patch_5">
    <path d="M 45 315 
L 324 315 
" style="fill:none;stroke:#000000;stroke-linecap:square;stroke-linejoin:miter;stroke-width:0.8;"/>
   </g>
   <g id="patch_6">
    <path d="M 45 43.2 
L 324 43.2 
" style="fill:none;stroke:#000000;stroke-linecap:square;stroke-linejoin:miter;stroke-width:0.8;"/>
   </g>
   <g id="legend_1">
    <g id="patch_7">
     <path d="M 125.92 267.6575 
L 312.8 267.6575 
Q 316 267.6575 316 264.4575 
L 316 54.4 
Q 316 51.2 312.8 51.2 
L 125.92 51.2 
Q 122.72 51.2 122.72 54.4 
L 122.72 264.4575 
Q 122.72 267.6575 125.92 267.6575 
z
" style="fill:#ffffff;opacity:0.8;stroke:#cccccc;stroke-linejoin:miter;"/>
    </g>
    <g id="line2d_21">
     <path d="M 129.12 64.1575 
L 161.12 64.1575 
" style="fill:none;stroke:#1f77b4;stroke-linecap:square;stroke-width:1.5;"/>
    </g>
    <g id="line2d_22"/>
    <g id="text_14">
     <!-- $G = 1.0,~\gamma = 1.0$ -->
     <g transform="translate(173.92 69.7575)scale(0.16 -0.16)">
      <defs>
       <path d="M 54.59375 10.890625 
L 58.40625 29.984375 
L 42.1875 29.984375 
L 43.703125 38.09375 
L 69.578125 38.09375 
L 63.28125 6 
Q 56.78125 2.4375 49.109375 0.5 
Q 41.453125 -1.421875 33.6875 -1.421875 
Q 19.96875 -1.421875 12.234375 6.1875 
Q 4.5 13.8125 4.5 27.390625 
Q 4.5 38.671875 9.203125 48.84375 
Q 13.921875 59.03125 22.21875 65.828125 
Q 27.4375 70.0625 33.640625 72.140625 
Q 39.84375 74.21875 47.40625 74.21875 
Q 54.25 74.21875 60.515625 72.484375 
Q 66.796875 70.75 72.515625 67.28125 
L 70.515625 56.78125 
Q 66.109375 61.375 60.203125 63.796875 
Q 54.296875 66.21875 47.609375 66.21875 
Q 39.84375 66.21875 33.9375 63.25 
Q 28.03125 60.296875 23.390625 54.109375 
Q 19.4375 48.828125 17.15625 41.671875 
Q 14.890625 34.515625 14.890625 27.09375 
Q 14.890625 16.890625 20.109375 11.734375 
Q 25.34375 6.59375 35.6875 6.59375 
Q 40.875 6.59375 45.703125 7.6875 
Q 50.53125 8.796875 54.59375 10.890625 
z
" id="DejaVuSans-Oblique-71"/>
       <path d="M 10.59375 45.40625 
L 73.1875 45.40625 
L 73.1875 37.203125 
L 10.59375 37.203125 
z
M 10.59375 25.484375 
L 73.1875 25.484375 
L 73.1875 17.1875 
L 10.59375 17.1875 
z
" id="DejaVuSans-61"/>
       <path d="M 11.71875 12.40625 
L 22.015625 12.40625 
L 22.015625 4 
L 14.015625 -11.625 
L 7.71875 -11.625 
L 11.71875 4 
z
" id="DejaVuSans-44"/>
       <path d="M 23.296875 46.09375 
L 28.71875 12.3125 
L 54 54.6875 
L 63.53125 54.6875 
L 30.8125 0 
L 26.765625 -20.796875 
L 17.78125 -20.796875 
L 21.828125 0 
L 15.4375 40.828125 
Q 14.453125 46.96875 9.8125 46.96875 
L 7.421875 46.96875 
L 8.890625 54.6875 
L 12.3125 54.6875 
Q 21.921875 54.6875 23.296875 46.09375 
z
" id="DejaVuSans-Oblique-947"/>
      </defs>
      <use transform="translate(0 0.78125)" xlink:href="#DejaVuSans-Oblique-71"/>
      <use transform="translate(96.972656 0.78125)" xlink:href="#DejaVuSans-61"/>
      <use transform="translate(200.244141 0.78125)" xlink:href="#DejaVuSans-49"/>
      <use transform="translate(263.867188 0.78125)" xlink:href="#DejaVuSans-46"/>
      <use transform="translate(295.654297 0.78125)" xlink:href="#DejaVuSans-48"/>
      <use transform="translate(359.277344 0.78125)" xlink:href="#DejaVuSans-44"/>
      <use transform="translate(443.017253 0.78125)" xlink:href="#DejaVuSans-Oblique-947"/>
      <use transform="translate(521.679363 0.78125)" xlink:href="#DejaVuSans-61"/>
      <use transform="translate(624.950847 0.78125)" xlink:href="#DejaVuSans-49"/>
      <use transform="translate(688.573894 0.78125)" xlink:href="#DejaVuSans-46"/>
      <use transform="translate(720.361003 0.78125)" xlink:href="#DejaVuSans-48"/>
     </g>
    </g>
    <g id="line2d_23">
     <path d="M 129.12 87.675 
L 161.12 87.675 
" style="fill:none;stroke:#ff7f0e;stroke-linecap:square;stroke-width:1.5;"/>
    </g>
    <g id="line2d_24"/>
    <g id="text_15">
     <!-- $G = 1.0,~\gamma = 2.0$ -->
     <g transform="translate(173.92 93.275)scale(0.16 -0.16)">
      <use transform="translate(0 0.78125)" xlink:href="#DejaVuSans-Oblique-71"/>
      <use transform="translate(96.972656 0.78125)" xlink:href="#DejaVuSans-61"/>
      <use transform="translate(200.244141 0.78125)" xlink:href="#DejaVuSans-49"/>
      <use transform="translate(263.867188 0.78125)" xlink:href="#DejaVuSans-46"/>
      <use transform="translate(295.654297 0.78125)" xlink:href="#DejaVuSans-48"/>
      <use transform="translate(359.277344 0.78125)" xlink:href="#DejaVuSans-44"/>
      <use transform="translate(443.017253 0.78125)" xlink:href="#DejaVuSans-Oblique-947"/>
      <use transform="translate(521.679363 0.78125)" xlink:href="#DejaVuSans-61"/>
      <use transform="translate(624.950847 0.78125)" xlink:href="#DejaVuSans-50"/>
      <use transform="translate(688.573894 0.78125)" xlink:href="#DejaVuSans-46"/>
      <use transform="translate(720.361003 0.78125)" xlink:href="#DejaVuSans-48"/>
     </g>
    </g>
    <g id="line2d_25">
     <path d="M 129.12 111.1925 
L 161.12 111.1925 
" style="fill:none;stroke:#2ca02c;stroke-linecap:square;stroke-width:1.5;"/>
    </g>
    <g id="line2d_26"/>
    <g id="text_16">
     <!-- $G = 1.0,~\gamma = 3.0$ -->
     <g transform="translate(173.92 116.7925)scale(0.16 -0.16)">
      <use transform="translate(0 0.78125)" xlink:href="#DejaVuSans-Oblique-71"/>
      <use transform="translate(96.972656 0.78125)" xlink:href="#DejaVuSans-61"/>
      <use transform="translate(200.244141 0.78125)" xlink:href="#DejaVuSans-49"/>
      <use transform="translate(263.867188 0.78125)" xlink:href="#DejaVuSans-46"/>
      <use transform="translate(295.654297 0.78125)" xlink:href="#DejaVuSans-48"/>
      <use transform="translate(359.277344 0.78125)" xlink:href="#DejaVuSans-44"/>
      <use transform="translate(443.017253 0.78125)" xlink:href="#DejaVuSans-Oblique-947"/>
      <use transform="translate(521.679363 0.78125)" xlink:href="#DejaVuSans-61"/>
      <use transform="translate(624.950847 0.78125)" xlink:href="#DejaVuSans-51"/>
      <use transform="translate(688.573894 0.78125)" xlink:href="#DejaVuSans-46"/>
      <use transform="translate(720.361003 0.78125)" xlink:href="#DejaVuSans-48"/>
     </g>
    </g>
    <g id="line2d_27">
     <path d="M 129.12 134.71 
L 161.12 134.71 
" style="fill:none;stroke:#d62728;stroke-linecap:square;stroke-width:1.5;"/>
    </g>
    <g id="line2d_28"/>
    <g id="text_17">
     <!-- $G = 0.66,~\gamma = 1.0$ -->
     <g transform="translate(173.92 140.31)scale(0.16 -0.16)">
      <defs>
       <path d="M 33.015625 40.375 
Q 26.375 40.375 22.484375 35.828125 
Q 18.609375 31.296875 18.609375 23.390625 
Q 18.609375 15.53125 22.484375 10.953125 
Q 26.375 6.390625 33.015625 6.390625 
Q 39.65625 6.390625 43.53125 10.953125 
Q 47.40625 15.53125 47.40625 23.390625 
Q 47.40625 31.296875 43.53125 35.828125 
Q 39.65625 40.375 33.015625 40.375 
z
M 52.59375 71.296875 
L 52.59375 62.3125 
Q 48.875 64.0625 45.09375 64.984375 
Q 41.3125 65.921875 37.59375 65.921875 
Q 27.828125 65.921875 22.671875 59.328125 
Q 17.53125 52.734375 16.796875 39.40625 
Q 19.671875 43.65625 24.015625 45.921875 
Q 28.375 48.1875 33.59375 48.1875 
Q 44.578125 48.1875 50.953125 41.515625 
Q 57.328125 34.859375 57.328125 23.390625 
Q 57.328125 12.15625 50.6875 5.359375 
Q 44.046875 -1.421875 33.015625 -1.421875 
Q 20.359375 -1.421875 13.671875 8.265625 
Q 6.984375 17.96875 6.984375 36.375 
Q 6.984375 53.65625 15.1875 63.9375 
Q 23.390625 74.21875 37.203125 74.21875 
Q 40.921875 74.21875 44.703125 73.484375 
Q 48.484375 72.75 52.59375 71.296875 
z
" id="DejaVuSans-54"/>
      </defs>
      <use transform="translate(0 0.78125)" xlink:href="#DejaVuSans-Oblique-71"/>
      <use transform="translate(96.972656 0.78125)" xlink:href="#DejaVuSans-61"/>
      <use transform="translate(200.244141 0.78125)" xlink:href="#DejaVuSans-48"/>
      <use transform="translate(263.867188 0.78125)" xlink:href="#DejaVuSans-46"/>
      <use transform="translate(295.654297 0.78125)" xlink:href="#DejaVuSans-54"/>
      <use transform="translate(359.277344 0.78125)" xlink:href="#DejaVuSans-54"/>
      <use transform="translate(422.900391 0.78125)" xlink:href="#DejaVuSans-44"/>
      <use transform="translate(506.6403 0.78125)" xlink:href="#DejaVuSans-Oblique-947"/>
      <use transform="translate(585.30241 0.78125)" xlink:href="#DejaVuSans-61"/>
      <use transform="translate(688.573894 0.78125)" xlink:href="#DejaVuSans-49"/>
      <use transform="translate(752.196941 0.78125)" xlink:href="#DejaVuSans-46"/>
      <use transform="translate(783.98405 0.78125)" xlink:href="#DejaVuSans-48"/>
     </g>
    </g>
    <g id="line2d_29">
     <path d="M 129.12 158.2275 
L 161.12 158.2275 
" style="fill:none;stroke:#9467bd;stroke-linecap:square;stroke-width:1.5;"/>
    </g>
    <g id="line2d_30"/>
    <g id="text_18">
     <!-- $G = 0.66,~\gamma = 2.0$ -->
     <g transform="translate(173.92 163.8275)scale(0.16 -0.16)">
      <use transform="translate(0 0.78125)" xlink:href="#DejaVuSans-Oblique-71"/>
      <use transform="translate(96.972656 0.78125)" xlink:href="#DejaVuSans-61"/>
      <use transform="translate(200.244141 0.78125)" xlink:href="#DejaVuSans-48"/>
      <use transform="translate(263.867188 0.78125)" xlink:href="#DejaVuSans-46"/>
      <use transform="translate(295.654297 0.78125)" xlink:href="#DejaVuSans-54"/>
      <use transform="translate(359.277344 0.78125)" xlink:href="#DejaVuSans-54"/>
      <use transform="translate(422.900391 0.78125)" xlink:href="#DejaVuSans-44"/>
      <use transform="translate(506.6403 0.78125)" xlink:href="#DejaVuSans-Oblique-947"/>
      <use transform="translate(585.30241 0.78125)" xlink:href="#DejaVuSans-61"/>
      <use transform="translate(688.573894 0.78125)" xlink:href="#DejaVuSans-50"/>
      <use transform="translate(752.196941 0.78125)" xlink:href="#DejaVuSans-46"/>
      <use transform="translate(783.98405 0.78125)" xlink:href="#DejaVuSans-48"/>
     </g>
    </g>
    <g id="line2d_31">
     <path d="M 129.12 181.745 
L 161.12 181.745 
" style="fill:none;stroke:#8c564b;stroke-linecap:square;stroke-width:1.5;"/>
    </g>
    <g id="line2d_32"/>
    <g id="text_19">
     <!-- $G = 0.66,~\gamma = 3.0$ -->
     <g transform="translate(173.92 187.345)scale(0.16 -0.16)">
      <use transform="translate(0 0.78125)" xlink:href="#DejaVuSans-Oblique-71"/>
      <use transform="translate(96.972656 0.78125)" xlink:href="#DejaVuSans-61"/>
      <use transform="translate(200.244141 0.78125)" xlink:href="#DejaVuSans-48"/>
      <use transform="translate(263.867188 0.78125)" xlink:href="#DejaVuSans-46"/>
      <use transform="translate(295.654297 0.78125)" xlink:href="#DejaVuSans-54"/>
      <use transform="translate(359.277344 0.78125)" xlink:href="#DejaVuSans-54"/>
      <use transform="translate(422.900391 0.78125)" xlink:href="#DejaVuSans-44"/>
      <use transform="translate(506.6403 0.78125)" xlink:href="#DejaVuSans-Oblique-947"/>
      <use transform="translate(585.30241 0.78125)" xlink:href="#DejaVuSans-61"/>
      <use transform="translate(688.573894 0.78125)" xlink:href="#DejaVuSans-51"/>
      <use transform="translate(752.196941 0.78125)" xlink:href="#DejaVuSans-46"/>
      <use transform="translate(783.98405 0.78125)" xlink:href="#DejaVuSans-48"/>
     </g>
    </g>
    <g id="line2d_33">
     <path d="M 129.12 205.2625 
L 161.12 205.2625 
" style="fill:none;stroke:#e377c2;stroke-linecap:square;stroke-width:1.5;"/>
    </g>
    <g id="line2d_34"/>
    <g id="text_20">
     <!-- $G = 0.33,~\gamma = 1.0$ -->
     <g transform="translate(173.92 210.8625)scale(0.16 -0.16)">
      <use transform="translate(0 0.78125)" xlink:href="#DejaVuSans-Oblique-71"/>
      <use transform="translate(96.972656 0.78125)" xlink:href="#DejaVuSans-61"/>
      <use transform="translate(200.244141 0.78125)" xlink:href="#DejaVuSans-48"/>
      <use transform="translate(263.867188 0.78125)" xlink:href="#DejaVuSans-46"/>
      <use transform="translate(295.654297 0.78125)" xlink:href="#DejaVuSans-51"/>
      <use transform="translate(359.277344 0.78125)" xlink:href="#DejaVuSans-51"/>
      <use transform="translate(422.900391 0.78125)" xlink:href="#DejaVuSans-44"/>
      <use transform="translate(506.6403 0.78125)" xlink:href="#DejaVuSans-Oblique-947"/>
      <use transform="translate(585.30241 0.78125)" xlink:href="#DejaVuSans-61"/>
      <use transform="translate(688.573894 0.78125)" xlink:href="#DejaVuSans-49"/>
      <use transform="translate(752.196941 0.78125)" xlink:href="#DejaVuSans-46"/>
      <use transform="translate(783.98405 0.78125)" xlink:href="#DejaVuSans-48"/>
     </g>
    </g>
    <g id="line2d_35">
     <path d="M 129.12 228.78 
L 161.12 228.78 
" style="fill:none;stroke:#7f7f7f;stroke-linecap:square;stroke-width:1.5;"/>
    </g>
    <g id="line2d_36"/>
    <g id="text_21">
     <!-- $G = 0.33,~\gamma = 2.0$ -->
     <g transform="translate(173.92 234.38)scale(0.16 -0.16)">
      <use transform="translate(0 0.78125)" xlink:href="#DejaVuSans-Oblique-71"/>
      <use transform="translate(96.972656 0.78125)" xlink:href="#DejaVuSans-61"/>
      <use transform="translate(200.244141 0.78125)" xlink:href="#DejaVuSans-48"/>
      <use transform="translate(263.867188 0.78125)" xlink:href="#DejaVuSans-46"/>
      <use transform="translate(295.654297 0.78125)" xlink:href="#DejaVuSans-51"/>
      <use transform="translate(359.277344 0.78125)" xlink:href="#DejaVuSans-51"/>
      <use transform="translate(422.900391 0.78125)" xlink:href="#DejaVuSans-44"/>
      <use transform="translate(506.6403 0.78125)" xlink:href="#DejaVuSans-Oblique-947"/>
      <use transform="translate(585.30241 0.78125)" xlink:href="#DejaVuSans-61"/>
      <use transform="translate(688.573894 0.78125)" xlink:href="#DejaVuSans-50"/>
      <use transform="translate(752.196941 0.78125)" xlink:href="#DejaVuSans-46"/>
      <use transform="translate(783.98405 0.78125)" xlink:href="#DejaVuSans-48"/>
     </g>
    </g>
    <g id="line2d_37">
     <path d="M 129.12 252.2975 
L 161.12 252.2975 
" style="fill:none;stroke:#bcbd22;stroke-linecap:square;stroke-width:1.5;"/>
    </g>
    <g id="line2d_38"/>
    <g id="text_22">
     <!-- $G = 0.33,~\gamma = 3.0$ -->
     <g transform="translate(173.92 257.8975)scale(0.16 -0.16)">
      <use transform="translate(0 0.78125)" xlink:href="#DejaVuSans-Oblique-71"/>
      <use transform="translate(96.972656 0.78125)" xlink:href="#DejaVuSans-61"/>
      <use transform="translate(200.244141 0.78125)" xlink:href="#DejaVuSans-48"/>
      <use transform="translate(263.867188 0.78125)" xlink:href="#DejaVuSans-46"/>
      <use transform="translate(295.654297 0.78125)" xlink:href="#DejaVuSans-51"/>
      <use transform="translate(359.277344 0.78125)" xlink:href="#DejaVuSans-51"/>
      <use transform="translate(422.900391 0.78125)" xlink:href="#DejaVuSans-44"/>
      <use transform="translate(506.6403 0.78125)" xlink:href="#DejaVuSans-Oblique-947"/>
      <use transform="translate(585.30241 0.78125)" xlink:href="#DejaVuSans-61"/>
      <use transform="translate(688.573894 0.78125)" xlink:href="#DejaVuSans-51"/>
      <use transform="translate(752.196941 0.78125)" xlink:href="#DejaVuSans-46"/>
      <use transform="translate(783.98405 0.78125)" xlink:href="#DejaVuSans-48"/>
     </g>
    </g>
   </g>
  </g>
 </g>
 <defs>
  <clipPath id="pe07fc6a92a">
   <rect height="271.8" width="279" x="45" y="43.2"/>
  </clipPath>
 </defs>
</svg>
